/* XPM */
static char *_ba33f445537429fc5ee95cfc7079eb7o9TU1l8oMsC8uxDk[] = {
/* columns rows colors chars-per-pixel */
"32 32 66 1 ",
"  c #F000BF",
". c #F200C0",
"X c #BB0093",
"o c #FFFFFE",
"O c #F600C3",
"+ c #F900C6",
"@ c #B60090",
"# c #F400C2",
"$ c black",
"% c #330024",
"& c #66004E",
"* c #1C0011",
"= c #C7009D",
"- c #E600B6",
"; c #F62ACB",
": c #F300C1",
"> c #2E001F",
", c #F53FCF",
"< c #CB00A0",
"1 c #C8009E",
"2 c #F325C9",
"3 c #F000BE",
"4 c #F201C2",
"5 c #8A006B",
"6 c #5954DD",
"7 c #F894E2",
"8 c #210014",
"9 c #FED7F1",
"0 c #FDCBEF",
"q c #FCF7FB",
"w c #E900BA",
"e c #5515D0",
"r c #CDCAF1",
"t c #FE97E4",
"y c #CF01C2",
"u c #F639CF",
"i c #15000C",
"p c #850067",
"a c #F773DA",
"s c #FCC5EF",
"d c #FFC5EF",
"f c #FFDAF3",
"g c #C300C4",
"h c #D2A0E9",
"j c #8887E6",
"k c #DBD6F3",
"l c #100ED1",
"z c #F3EFF8",
"x c #CD29AA",
"c c #C436CF",
"v c #8207CA",
"b c #DBE3F7",
"n c #CDD2F3",
"m c #DBDCF5",
"M c #8743D8",
"N c #1015D2",
"B c #1013D2",
"V c #870069",
"C c #D80DCD",
"Z c #E928CA",
"A c #FA76DB",
"S c #FE76DE",
"D c #FD2ABF",
"F c #F000C0",
"G c #F00093",
"H c #F200FE",
/* pixels */
"$$$$$$$$$$$$$$$$$$$$$$$$$$$$$$$$",
"$$$$$$$$$$$$8%%%%%%8$$$$$$$$$$$$",
"$$$$$$$$$$$*5X@@@@X5*$$$$$$$$$$$",
"$$$$$$$$8%>&<++OO++<&>%8$$$$$$$$",
"$$$$$$$*5XX=-O####O-=XX5*$$$$$$$",
"$$$$$$*&<++#F     3 #++<&*$$$$$$",
"$$$$$85<w##.      33.#Ow<5*$$$$$",
"$$$$$%X+;,,;43  34;,,;4#+<&*$$$$",
"$$$$$>@;t007233332700723#w<58$$$",
"$$$$8&xSfoo9a244;Afoo9a24O+X%$$$",
"$$$85x7fqooq9722tfqooq97;#+X>$$$",
"$$$%XuhnrkzoosuZhnrkzoos,.#=&*$$",
"$$$%XCM66jkooduyM66jkoos,3 -<V*$",
"$$*&<geBl6rood,geBl6roos,33#+1&>",
"$85<wgeNl6rood,geNl6roos,33.#-=@",
"$%X+Oyve6jmq97;yve6jmq97;33  F#O",
"$%@+Owychbq9a24wychbq9a24    F:#",
"$%@O:3.;t0072333.;t007233       ",
"$%@O: .#;,,;43  .#;,,;43        ",
"$%@O#   3333      3333          ",
"$%@O#   3333      3333          ",
"$%@O#                           ",
"$%@O#                           ",
"$%@O#          F:##:F           ",
"$%@O#          F#OO#F           ",
"$%@O#  F::F  FF-=@@=-FF  F::F   ",
"$%@O#  F##F  :#=&>>&=#:  F##F   ",
"$%@O:.#-==-#.#O@>$$>@O#.#-==-#. ",
"$%@O:#+1&&1+#:O@%$$%@O:#+1&&1+# ",
"$%@OO-1piip1-OO@%$$%@OO-1piip1-.",
"$%@++=&*$$*&=++@%$$%@++=&*$$*&1O",
"$%@++@>$$$$>@++@%$$%@++@>$$$$%@+"
};
