/* XPM */
static char *b3dbd35359154951bbd653db682eef76IvGD1WeCngTFiWeM[] = {
/* columns rows colors chars-per-pixel */
"32 32 61 1 ",
"  c #F100BF",
". c #B60090",
"X c #BB0093",
"o c #CB00A0",
"O c #F600C3",
"+ c #F900C6",
"@ c #F201C2",
"# c black",
"$ c #F400C2",
"% c #330024",
"& c #FFFFFE",
"* c #F300C2",
"= c #66004E",
"- c #1C0011",
"; c #C7009D",
": c #F63FCF",
"> c #E600B6",
", c #2E001F",
"< c #F52BCA",
"1 c #F225C9",
"2 c #FBF6FA",
"3 c #8A006B",
"4 c #5954DD",
"5 c #F894E2",
"6 c #210014",
"7 c #FED7F1",
"8 c #FDCBEF",
"9 c #5515D0",
"0 c #CDCAF1",
"q c #FE97E4",
"w c #CF01C2",
"e c #15000C",
"r c #850067",
"t c #EA00B7",
"y c #F773DA",
"u c #FCC6EF",
"i c #FEC4EF",
"p c #FFDAF3",
"a c #D2A0E9",
"s c #C300C4",
"d c #8887E6",
"f c #100ED1",
"g c #DBD6F3",
"h c #E205C4",
"j c #F72BD1",
"k c #F527C9",
"l c #C436CF",
"z c #8743D8",
"x c #8207CA",
"c c #FC76DD",
"v c #DBE3F7",
"b c #CDD2F3",
"n c #DBDCF5",
"m c #1015D2",
"M c #1013D2",
"N c #870069",
"B c #CE2AAB",
"V c #CC28A8",
"C c #C70090",
"Z c #F10093",
"A c #B600A0",
/* pixels */
"################################",
"##############6%%%%%%%%%%%%%%%%%",
"#############-3X................",
"##########6%%=o++OOOOOOOOOOOOO++",
"#########-3XXotOO**$$$$$$$$**O++",
"######6%,=Bjhsswh           $>;.",
"#####-3X.V5az99xw          $+;=,",
"####-=o+jcpb4Mm9l<$        >;r-#",
"###63otjqp204ff4aq<      *$;=e##",
"###%X+$:8&&gd44dv8:      *$;=e##",
"###,X+$:8&&2g00n28:        >;r-#",
"##-=;$ <572&&&&275<        $+;=,",
"#63o>  @1y7&&&&7y1@         $>;.",
"#%X+O    15iiii51         *$*O++",
"#%.+$    @1::::<@         $OOO++",
"#%.O$    @k1wsswh        >;.....",
"#%.O$    kqaz99xw      @$;=,%%%%",
"#%.+$  @1cpb4Mm9l<$    $O.,#####",
"#%X+O  <5p204ff4aq<    *O.,#####",
"#63o>  :8&&gd44dv8:    *$;=,%%%%",
"##-=;$ :8&&2g00n28:      >;.....",
"###,X+$<572&&&&275<       $OOO++",
"###%X+O@1y7&&&&7y1@       *$*O++",
"###63ot$ 15uuuu51           $>;.",
"####-=o+$@<::::<@          $+;=,",
"#####-3otO$                >;r-#",
"######-=o++$             @$;=e##",
"#######-3XX;>$           *$;=e##",
"########6%,=o+$            >;r-#",
"###########-N;>            $+o=%",
"############-=;$*           $>;.",
"#############,.O$             O+"
};
