/* XPM */
static char *_04955d7b43143e2827ca3ba856e9a79XP4WyCaXBp8sKMMD[] = {
/* columns rows colors chars-per-pixel */
"64 64 178 2 ",
"   c #054D00",
".  c #0A4E00",
"X  c #114201",
"o  c #134C00",
"O  c #055000",
"+  c #0C5200",
"@  c #0F5800",
"#  c #125400",
"$  c #195401",
"%  c #145B00",
"&  c #1B5D01",
"*  c #215804",
"=  c #255A0A",
"-  c #265A10",
";  c #29561D",
":  c #295E18",
">  c #1C6301",
",  c #1E6900",
"<  c #1F6608",
"1  c #226502",
"2  c #2B6504",
"3  c #246B02",
"4  c #2C6E01",
"5  c #22640A",
"6  c #29610F",
"7  c #266B0A",
"8  c #2C6C0A",
"9  c #316707",
"0  c #316F03",
"q  c #316709",
"w  c #326A0A",
"e  c #267002",
"r  c #2D7101",
"t  c #2E7902",
"y  c #2D740A",
"u  c #2E790C",
"i  c #307001",
"p  c #357A04",
"a  c #387D06",
"s  c #31730A",
"d  c #347B0C",
"f  c #397E0B",
"g  c #276E10",
"h  c #296F12",
"j  c #316814",
"k  c #33681A",
"l  c #386F1C",
"z  c #2F7611",
"x  c #327412",
"c  c #3B7511",
"v  c #357C13",
"b  c #3A7C14",
"n  c #367C1A",
"m  c #3B7C18",
"M  c #3E7323",
"N  c #417B15",
"B  c #45771E",
"V  c #46791D",
"C  c #467922",
"Z  c #487A21",
"A  c #427729",
"S  c #437C2B",
"D  c #417632",
"F  c #447138",
"G  c #368204",
"H  c #3B8206",
"J  c #3C8802",
"K  c #37810C",
"L  c #3C830B",
"P  c #3D890C",
"I  c #358013",
"U  c #3C8413",
"Y  c #3E8913",
"T  c #3D831B",
"R  c #3F891A",
"E  c #408707",
"W  c #41850D",
"Q  c #438B0D",
"!  c #45910C",
"~  c #49930E",
"^  c #4F9D0E",
"/  c #509F0E",
"(  c #428613",
")  c #448C13",
"_  c #498E14",
"`  c #428419",
"'  c #448C1B",
"]  c #498C1B",
"[  c #459214",
"{  c #4B9414",
"}  c #4E9B14",
"|  c #46911B",
" . c #4C941A",
".. c #4E9B1A",
"X. c #519E14",
"o. c #53961D",
"O. c #539D1B",
"+. c #51A00F",
"@. c #4FA015",
"#. c #52A014",
"$. c #54A11C",
"%. c #58A21D",
"&. c #448622",
"*. c #468E22",
"=. c #4A8A22",
"-. c #478E28",
";. c #528A27",
":. c #548C2B",
">. c #479122",
",. c #4C9322",
"<. c #4F9922",
"1. c #559523",
"2. c #559922",
"3. c #569920",
"4. c #509C20",
"5. c #579D20",
"6. c #569C20",
"7. c #529824",
"8. c #529B25",
"9. c #559824",
"0. c #549B25",
"q. c #559C24",
"w. c #549D23",
"e. c #5A9B25",
"r. c #589F27",
"t. c #589D25",
"y. c #54932B",
"u. c #57972A",
"i. c #55942C",
"p. c #56952C",
"a. c #59972A",
"s. c #59962E",
"d. c #59972A",
"f. c #559D2C",
"g. c #599E2B",
"h. c #4A8130",
"j. c #568C33",
"k. c #5A8E33",
"l. c #559032",
"z. c #589430",
"x. c #5D9035",
"c. c #559B31",
"v. c #599D32",
"b. c #629A37",
"n. c #659D39",
"m. c #56A023",
"M. c #54A024",
"N. c #55A122",
"B. c #59A123",
"V. c #59A225",
"C. c #56A12B",
"Z. c #5AA32C",
"A. c #5BA334",
"S. c #5DA43A",
"D. c #64A32E",
"F. c #65A130",
"G. c #65A432",
"H. c #66A532",
"J. c #65A431",
"K. c #64A434",
"L. c #68A335",
"P. c #68A637",
"I. c #66A439",
"U. c #66A23E",
"Y. c #69A33C",
"T. c #6CA73D",
"R. c #68A339",
"E. c #55804B",
"W. c #6CA640",
"Q. c #6DA947",
"!. c #6EA842",
"~. c #75B342",
"^. c #78B442",
"/. c #77B349",
"(. c #78B24B",
"). c #78B64B",
"_. c #79B44A",
"`. c #77B051",
/* pixels */
"L.F.H.D.H.K.Y.;.B V V Z V V V V V V Z Z V Z Z V Z Z B B V V V V V ;.T.I.Y.;.= k C Z Z V V V Z V V C A A - l U.F.H.H.T.z.6 : ; E.",
"9.1.o.3.9.7.i.m 9 w w w w w w w q 0 q w w q w w w w 9 w w w w w 0 N d.7.s.m o * w w w w w w w w w q j - o 5 p.3.o.o.e.] $ $ X F ",
"3.5.O.O.V.s $ 7 s w i i 0 0 0 0 0 0 0 0 0 0 0 0 0 0 0 0 0 i w 0 0 i p p i i 9 w w i w i i i 0 i w 8 $ # + < f.O.O.X.%.o.,.&.o M ",
"7.7. .o.q.e + 1 i i i i i 0 0 p p i p i i i i 0 i 0 0 0 i i r 0 i i i p p r t r r i r i r i i i r 3 % % % 3 O.@.#.X.....q.,.& D ",
"& > & r d i 4 4 t i i 0 r r r L o. .O.E 4 i 0 0 i i 0 i i 0 0 E o.X.~ } } Q 4 0 i i i r r p 7.Y # 7 >.| { | @.@.$.[ > e 4.q.=.Q.",
"# # # 1 4 r r r i i i i r i t Q O.O.O.W 4 i 0 0 0 i 0 0 i i 0 W O.O.#.#.$.! i r i i i r r H B.) @ 3 M.$.$.#.@.@.$.R @ , ,.8.p.).",
"=.d 2 r i r e ( o.} o.H e W o.} %.Q p p r i i i i i i 0 i i 0 i p E $.#.+.} o.Q i i r a o.^ #.} { { @.#.@.#.$.| > , -.` > 3 p._.",
"g.( 4 i i p r _ w.4.%.W t Q O.O.w.P e i i r 4 i 0 i i i i i i i 4 f 4.@.#.#.$._ e i r H X.#.+.#.@.#.#.@.@.@.4.*.+ > f.*.# > j.`.",
"p i r ( o... .t % U M...{ ..N.G % I o.o.} W 0 i i r i i t i r i r 3 > t $.} N.R @ 3 4.} #.#.@.#.#.@.$.@.$.[ > % + % d s 3 8 $ h.",
"0 i r _ w.O.q.t @ I <.<.$.<.<.y @ I N.O.O.( 4 i 0 0 i 0 r i i i i 3 @ r N...0.I + 7 q.O.@.@.} ..#.@. .<.8.R @ + % % 4 r s w o A ",
"0 0 i i p ~ N.{ | t > T C.d > v |  .w.Q p p 0 0 i i i i r L o.{ } [ [ { $.P > % O 7 r.O.N.) > y C.' , > > 7 *.R 3 3 s i 0 0 2 j.",
"0 0 i r 4 ( <.O.C.y   n c.y   n f.4.5.Q 4 r 0 0 4 i i 0 4 W O.O.#.$.$.@.N.L @ @ O 5 f.<.8.U O < f.R @ @ O , A. .i i i i 0 0 j k.",
"0 0 0 0 r 3 > T C.7 + % 5 % . & > 3 f i r 0 i 0 i i i i i i p Q X.X.X.O.$...>.z + & > > > & + # > e >.T + , f. .i r r i 4 i 9 k.",
"0 0 0 i s & + b A.y o + . + o # . 1 i r i i i i i i i 0 i 0 r H O.O.4.q.<.8.S.T + # @ + + O @ @ + , C.R @ 3 0. .t r r 4 i i 9 k.",
"i i i i i 4 3 s v > # o # & h 8 3 4 r i i 0 i i i r r r i r 4 p f r > > > < > y >.| >.v + < -.' | | 4...[ | N.[ % 1  ...o.] 0 k.",
"s w i i i i i 4 4 > # # # 1 y 4 s r i i i i i i r r i r 0 0 0 0 r 1 + # + # . 7 C.0.C.R + g v.f.N.N.4...$.#.$.' @ , 4.w.9.1.9 :.",
"w i r i i i i r r U ] ' ' [  .E 4 0 i 0 r i t H } ~ o.E 0 0 i i 4 4 3 8 3 8 2 f O.$.$. .' v > u C.[ , r O.#.#.} Q { N. ., 2 8 j.",
"w 0 w i i i i r 4 ] f.q.N.O.O.W r i r r i i t Q O.O.O._ 0 0 i i i r i r s s 3 U 0...} X.V.Y + 7 C.P @ , } #.@.#.$.$.4.R # % 8 k.",
"i i r i i i i r i 3 > R N.} #./  .H r H { ~ ~ { X.X.O.) 0 i i 0 w r i i 0 w y 3 , t $.X.$.) 3 r f p 3 p O.X.+.} @.[ 3 3 3 8 q k.",
"w i i i 0 i 4 0 y & + b M.O.X.#.%.Q 4 Y %.#.X.#.X.O.5.) 4 0 i i i i r i i i i 3 + 7 N.O.N.| i i 4 0 4 d 8.$.#.@.$.[ @ % w j 8 j.",
"w i i i i 0 i r i 3 8 2 , U $.} N.d @ K %.} #.@.%.P , 3 i r i i i i r 0 i i w r 3 f 4.) , 2 4 i 0 0 r 4 , t ..#.@...[ U % 1 =.Q.",
"i w i 4 i i i 0 0 s s & . f C.o.Z.u O I V.@.N.$.M.f . & y 0 i 0 i i 0 i i i r i r f Z.Y # & 8 i i i i 3 . > f.$.#.@.N.| @ > p.).",
"i i i i i i i 0 i i r r 3 i f t , z R | V.G , y f r 3 4 4 i r i i 0 0 i r r i i r i f i 3 4 i 0 0 0 i w 8 3 3 y O.@.#.} Y { 1.^.",
"i i 0 r i 0 r i i r r i i r e > O v A.M.N.t O > 4 r t i r r r i i r i i r r r i r r 4 r i i 0 0 i r 0 i w 7 + > 4.#.+.#.$.5.o.^.",
"{ _  .a 0 0 i 0 r r r L ~ ~ ~ ) ) u , U N.[ P Q { ~ ~ [ { L r r i 4 r a { L i r r r r r 4 i i 0 i r i i w r 1 p $.@.#.+.X.X.o.^.",
"e.q.g.L 4 0 i i r r r Q %.#.#.%.Z.u   z C.N.$.$.#.$.#.#.%.Q r r r i i H B._ r r r i r r i i 0 0 0 0 i i i r i a #.@.@.@.X.w.1.^.",
"u.f 1 4 i i 0 i 4 L { } #.^ } } 0.u . & 3 K $.o.@.} #.X.} } { H e a { ~ X.! r p { _ { W 0 i 0 i i i i i r p _ { } @.$.{ 3 s 9.^.",
"v.3 . 3 i i 0 i 0 _ B.X./ @.#.$.C.z o + + u C.O.$.O.N.$.N.O.N.Q r H %.X.#.Q t H %.%.e.{ i i i i 4 i i i 4 a O.O.#.#.N.| @ > i._.",
"7 7 3 4 w i 0 i i p a ~ #.} $.L 7 & # & 7 2 3 u K t 7 , 3 K $.} ~ } #.#.#./ ! ~ O.{ a p i i 0 i i i 0 i 4 a O.X.$.{ 4 3 1 8 c b.",
"o 1 s 8 i i 0 i i 4 4 Q %.O.V.i + + . 1 x > # & r > + O O t $.#.O.$.$.$.#.+.O.%.N.[ e r r i r i i i i i e H O.X.$.) @ % 4 s 2 k.",
"2 4 i i i 0 4 i i i r p L H L r 1 1 1 4 4 4 1 d ] ) R y + y N...@.P , K $.@.$._ 3 d { _ _ W 0 i 0 i 0 i 4 p O.O.#.[ 3 3 w 0 w x.",
"w w i r r i i i i i 0 0 4 r 4 4 s y s w 4 w r ) V.w.Z.I O u M...M.P   7 N...M.U . 3 C.O.B._ i r i i 0 i r p w.O.$.{ t r i s q k.",
"w 0 i r i 0 i i i i 0 i i 4 i i 4 i 0 i 4 i 0 p G [ 4.[ K d 7 U C.U O y f.R 3 u U ' $.{ H p 4 i i i i i r r 3 s O...~ W i i w k.",
"i r i r r r i 0 r i 0 0 i 0 i 0 i i i i i i 0 r 4 Y M.N.Z.K O 7 A.T   h S.T O 7 Z.4.M.{ r 4 i i i i r r i 3 # 1 g.4.%. .t 0 9 k.",
"i W _ Q _ p 0 4 0 i i 0 0 0 i i i i 0 i r i 0 r r r 3 I N.[ U v 7 5 # & h < + 7 f.' 3 y r r 0 i 0 p _ Q { U 3 1 7 p ..o.~ W 9 k.",
"4 _ B.w.Z.P 4 i 0 i i i i 4 0 i 0 i i i r r i 4 y > . u C.M.S.T . . . o . . . y S.U + & 4 r 4 r 4 f Z.r.5.{ i 3 + , ..X.O.o.0 k.",
"Q o.O.K 3 y r r i 0 4 i 0 4 0 i i 4 i i i 0 i r 4 4 1 8 ( s 8 < . & 5 2 1 2 1 8 U s 1 3 4 d _ U 4 r r d 4..._ P 1 p O.X.X.o.0 k.",
"O.w.C.3   , i r r r r r r i 0 0 0 i i 0 0 i r r 4 r s r 4 > + + o & y i s w s r 4 r i i 4 f F. .e 3 O > r.N.O...r a X.X.X.} 0 ;.",
"<.U y d U Y _ p r H _ a r r i 0 0 0 0 H ~ Q Q ! _ L r 0 i 4 1 1 1 3 w r i i i i i r 4 i r 4 8 v ) ( U d y d O.} ! ! X./ X.X.( L.",
"v.3 O U V.w.r.L 4 _ V.L 4 r i i 0 0 4 Q %.X.O.O.B.Q 0 i 4 r w s s w i 0 i i 0 i i i i 0 i 1   1 V.O.V.' O , N.} #.#./ O.O.e.d.^.",
"y v K | w.) L p 4 Q O.~ Q a 4 i 4 H Q ~ #.X.X.~ L p i 0 i i 0 i i r i i i i i 0 i i 0 p _ L > t 4.} } } G P X.X./ X.#.{ r d y.~.",
". T Z.4.V.L 4 r r ~ $.X.%.E 4 0 4 ) %.#.X.#.M.Q r r r i i i r i i i r w i i i i r 4 4 a N.[ r f V.$.@.#.#.$.$.$.$.$.$.[ + > i./.",
"# m A.K r y 4 r e Q $.} X.{ ~ a 4 Q O.O.$.P r y r r i 4 0 0 i i i i i i r i i i r p Q ~ $.~ r r y K #.} #.} P H r d $.[ 1 4 m n.",
"o T S.3 . 1 r r r [ V.$.O.O.g.) 4 ) V.O.%.t   > r r 4 4 i r i 0 i 4 r r 4 4 r r 4 H %.X.#.[ r 3 O , $./ #.~ r 3 + > f. .i s 2 l.",
"1 6 x 7 1 3 i i r s u ` r.Y y s e y u R N.! G K Q Q ) f 0 0 r i r p ) Q Q Q _ H e H $.X.$.Q > 7 f P @.} X.{ i r > 4 W L r s q b.",
"x & . 1 s 4 4 r i & . v S.r . 1 x >   t $.$.$.N.%.N.Z.] 4 i 0 i 3 W V.%.%.O.%._ e H M.$.$.P O 3 Z.$.@.$.O...r r r i 4 0 i i q k.",
"w 2 1 3 w i i i s 3 1 s ` i 1 1 > 8 K Y $.} @.} N.( y s r 0 i 0 0 p W _ X.X.X.} Q P y K O.[ G G O.X.$.[ d s r 4 r i i i 0 w q k.",
"w s s s i i i i i r y r 4 r 3 > . b A.C.N.N.N.%.C.p . > r r i 0 0 0 4 H N.$.#.X.V.Y   7 C.M.N.$.#.X.N.' + # s r 0 i i 0 i 0 q x.",
"w w 4 i i 0 i i i 0 0 r r a ) L d u z z z u u f ) s 1 3 r i 0 r i i i i t U @.@.$.Y + > y U $.@.O.[ u y 1 1 4 i r r i 0 i w w x.",
"i s i r i i 4 0 i i r r e Q B.O.C.u O +   O . % 3 r r i i 0 i i i i i 1 O e Z.4.$.Y O +   , $.$.V.' + % s r 4 r r r i i i i q x.",
"i r i i r f ( p r r 4 a Q { #.X.4.u O < b u v u r r w i 0 0 i 0 i i i 3 > 7 u U N.[ u u u P $.| u y , 1 r 0 i i 0 0 0 0 0 w q k.",
"w w i r r ] Z.U 4 r 4 _ %.X.#.O.A.u O I A.C.A.] r r i r 0 0 r i r r i i y ,   e N.@.$.N.N.$.$.P   % y r 0 i 0 0 i i 0 i 0 0 q b.",
"i 4 0 4 i s d U ( p e Q $.@.#.Y u I y Y f.) z y r r i i 0 i 0 i i i 0 4 e i p P @.} @.} } @.@.{ i K ( L r i i i 0 r i i 0 s 9 x.",
"i i 4 4 r > O v V.J r ! #.+.$.t O K C.M.C.u   > r r i 0 i 4 0 4 i i i r e L V.N.@.$.$.$.$.$.@.#.N.M.Z. .i 0 i 0 i 0 i 0 i 0 9 k.",
"i f ( W ) 3 + I V.! J ~ #./ #.P t P N.Y u d t f ( f 4 i r p ( f r i r p P ! } @.$.[ d I d U $.} #. .d d r r r r i i i r i w 9 k.",
"4  .Z.r.f.e O I $.#.#.#./ +.#.#.$.$.$.t   y C.M.Z.) 4 i 4 ( D.) e r r H $.$.N.$.$.P O + O 3 M.%.N.Q + % r r r i r 0 0 i 0 0 0 k.",
"` U u >.M.P t P $.+.@.#.+.+.#.+.+.@.@.! t Y 0.' d u r r r w v U W Q E ! X.{ t Y N.{ t e , 3 ( Q ) H 1 1 r r i i i i i i i i w k.",
"f.3   R Z.M.N.@.#.#.$.$.X.#.$.$.+.+.#.#.$.N.C.p   > 4 r u 1   3 V.X.%.X.%.G O e N.$.Z.>.4 t 4 r r e w y 4 i i i 4 4 i i i 0 2 :.",
"c.3 + h I >.$.@.$.P K | N.) G [ $.+.+.#...[ I v y d ( s 1 7 u U O.X.X.X.@.! t G $.{ _ L i r r 4 r 4 i 4 i i 4 i W L 0 i i i N n.",
"c.8 + O O K $.$.V.e   I Z.y   d V.#.#.#.N.t   u C.f.S.m . x S.C.5.%.#.#.#.$.N.N.$.! 3 e r r i y i r i 4 r r r f e.o.i i r p d._.",
"s.y + & > ( N.Y v 7 & v ] y % y f | $.~ ( p & f f.' v y $ 8 n n v Y Q { #.@.@.} $.^ H H P p 1 1 r i W P L a 1 r 0.' 1 4 L Q 1.~.",
"v.3 . 2 e ] V.r + 1 y r r y s & . f C.L e r r ` Z.f . & x 1 + + . % e H N.%.$.#.X.O.M.r.Z.` o & 4 f g.r.N.' + > M.) @ , o.O.5.T.",
"m x y b U W ] i & 3 s w i w w 3 > s ] f i i 4 f ] s & 2 s 3 & 1 r d Y f f v f R 5. .d b ] b & 1 s i b ( N. .r d N.| p a O.O.3.^.",
". T g.8.q.H 4 i s w i i w s w 0 w 0 0 i i 0 i i 0 s 8 s w s w ` v.u.g.U + @ + 3 Z.( + & 4 4 y w s 2 . 1 <.$.M.4.$.$.e.O.O.O.e.T."
};
