/* XPM */
static char *_48c8c11a8f84ccadabde702f6640244sNrADyuY1hSrfCpa[] = {
/* columns rows colors chars-per-pixel */
"54 52 11 1 ",
"  c None",
". c #211F30",
"X c #843346",
"o c #A14744",
"O c #B96E54",
"+ c #CF9E6E",
"@ c #858D99",
"# c #E4C997",
"$ c #AFBBC3",
"% c #D8E1E4",
"& c white",
/* pixels */
"                                                      ",
"                                                      ",
"                                                      ",
"                                                      ",
"                                                      ",
"                   .       .       .                  ",
"                  .%.     .%.     .%.                 ",
"                  .%.     .%.     .%.                 ",
"                 .%$@.   .%$@.   .%$@.                ",
"                 .%$@.   .%$@.   .%$@.                ",
"                .%$$$@. .%$$$@. .%$$$@.               ",
"                .@@@@@. .@@@@@. .@@@@@.               ",
"              ...........................             ",
"             .&&&X+#####+#+++++++###+X&&&.            ",
"             .&##XO++++++++++O++++++OX##&.            ",
"           ...&##.....................##&...          ",
"         ..%@....ooooooooooooooooooooo....@%..        ",
"       ..%%$@.+O.oOOOXOOOOOOOOoOOXOOOo.O+.@$%%..      ",
"      .%%$$$@.#+.oOO.OOOOOOOOOOOOO.OOo.+#.@$$$%%.     ",
"       ..@@$@.#+.oOO......XOX......OOo.+#.@$@@..      ",
"         ..@@.#+.oOOoX&&&&XOX&&&&XoOOo.+#.@@..        ",
"           ...#+.oOOoX&&&&XOX&&&&XoOOo.+#...          ",
"             .++.oOOOX&&&.....&&&XOOOo.++.            ",
"           ...#+.oOOOX&&.O++##.&&XOoOo.++...          ",
"         ..%@.++.oOOOoXX.+++++.XXoOOOo.O+.@%..        ",
"       ..%%$@.O+.ooOOOOo.OO+#+.oOOOOOo.++.@$%%..      ",
"      .%%$$$@.++.oOOXXXX.OO+++.XXXXOOo.++.@$$$%%.     ",
"       ..@@$@.++.oOX#+OO.+++++.OO+#XOo.++.@$@@..      ",
"         ..@@.++.o.#+XXX.OOOOO.XXX+#.o.++.@@..        ",
"           ...++.o.+.&&&&.....&&&&.+.o.++...          ",
"             .++.o.+.XXXXXXXXXXXXX.+.o.+O.            ",
"           ...++.o.+.X&&&&&X&&&&&X.+.o.++...          ",
"         ..%@.+O.o.OO.............OO.o.++.@%..        ",
"       ..%%$@.++.oo.OOOOOOOOOOOOOOO.oo.++.@$%%..      ",
"      .%%$$$@.++.oOo...............oOo.++.@$$$%%.     ",
"       ..@@$@.OO.oOOoooooooooooooooOOo.OO.@$@@..      ",
"         ..@@.XX.oOOOOOOOOOOOOOOOOOOOo.XX.@@..        ",
"           ...&&&.....................&&&...          ",
"             .&##.+###+++++O++#+####+.##&.            ",
"             .&##.O+++++O+++++++++++O.##&.            ",
"              ...........................             ",
"                .@@@@@. .@@@@@. .@@@@@.               ",
"                .%$$$@. .%$$$@. .%$$$@.               ",
"                 .%$@.   .%$@.   .%$@.                ",
"                 .%$@.   .%$@.   .%$@.                ",
"                  .%.     .%.     .%.                 ",
"                  .%.     .%.     .%.                 ",
"                   .       .       .                  ",
"                                                      ",
"                                                      ",
"                                                      ",
"                                                      "
};
