/* XPM */
static char *_790841a68564cc0de46cbccb07e8250jxshr5Oju8idRAYm[] = {
/* columns rows colors chars-per-pixel */
"32 32 10 1 ",
"  c None",
". c #141228",
"X c #00601F",
"o c #9E0C4B",
"O c #CE2844",
"+ c #E64747",
"@ c #1E8801",
"# c #74A310",
"$ c #A6CE3E",
"% c white",
/* pixels */
"                    ..          ",
"                   .@@.         ",
"         ...      .@#@.         ",
"        .@@@.     .##@.         ",
"       .@##@.    .###@.         ",
"       .###.......###@..        ",
"      ..###$$$$$$$###.@@.       ",
"      .@.#$$$$$$$$$#.@#@.       ",
"      .@.#$$$$$$$$$####@.       ",
"       ..#$$$$$$$$$####.        ",
"        .#$$$$$$$$$###.         ",
"         .#$$$$$$$###.          ",
"        ..###########..         ",
"       .@@###########@@.        ",
"      .@###############@.       ",
"     .#####@@@@@#########.      ",
"     .#@############@####.      ",
"     .##XXXXXXXXXXXX#####.      ",
"     .###################.      ",
"     .#@XXXX@#@XXXX@####@..     ",
"     .@X%%%%X@X%%%%X@@@@..+.    ",
"      ...................O+.    ",
"      .OOOOOOOOOOOOOOOoo.O+.    ",
"      ..ooOoOOOOoOooo....oO.    ",
"      .+++O+OOOO+O+++Oo.o..     ",
"       ................oOOO.    ",
"       .####. .######. .+++.    ",
"        ....   ......   ...     ",
"                                ",
"                                ",
"                                ",
"                                "
};
