/* XPM */
static char *_bfeadbd2fc04254be32339ae7e95614y9uTEN0rdmKNvPdy[] = {
/* columns rows colors chars-per-pixel */
"64 64 2 1 ",
"  c #AABACE",
". c #BCCBD5",
/* pixels */
"................................                                ",
"................................                                ",
"................................                                ",
"................................                                ",
"................................                                ",
".....                      .....     ......................     ",
".....                      .....     ......................     ",
".....                      .....     ......................     ",
".....                      .....     ......................     ",
".....                      .....     ......................     ",
".....                      .....     ......................     ",
".....                      .....     ......................     ",
".....                      .....     ......................     ",
".....                      .....     ......................     ",
".....                      .....     ......................     ",
".....                      .....     ......................     ",
".....                      .....     ......................     ",
".....                      .....     ......................     ",
".....                      .....     ......................     ",
".....                      .....     ......................     ",
".....                      .....     ......................     ",
".....                      .....     ......................     ",
".....                      .....     ......................     ",
".....                      .....     ......................     ",
".....                      .....     ......................     ",
".....                      .....     ......................     ",
".....                      .....     ......................     ",
"................................                                ",
"................................                                ",
"................................                                ",
"................................                                ",
"................................                                ",
"                                ................................",
"                                ................................",
"                                ................................",
"                                ................................",
"                                ................................",
"     ......................     .....                      .....",
"     ......................     .....                      .....",
"     ......................     .....                      .....",
"     ......................     .....                      .....",
"     ......................     .....                      .....",
"     ......................     .....                      .....",
"     ......................     .....                      .....",
"     ......................     .....                      .....",
"     ......................     .....                      .....",
"     ......................     .....                      .....",
"     ......................     .....                      .....",
"     ......................     .....                      .....",
"     ......................     .....                      .....",
"     ......................     .....                      .....",
"     ......................     .....                      .....",
"     ......................     .....                      .....",
"     ......................     .....                      .....",
"     ......................     .....                      .....",
"     ......................     .....                      .....",
"     ......................     .....                      .....",
"     ......................     .....                      .....",
"     ......................     .....                      .....",
"                                ................................",
"                                ................................",
"                                ................................",
"                                ................................",
"                                ................................"
};
