/* XPM */
static char *c1b1e4aab043457fbd3d61c7deb309e3s4tbAEb988RuHqaT[] = {
/* columns rows colors chars-per-pixel */
"32 32 223 2 ",
"   c black",
".  c #0B0009",
"X  c #2A0121",
"o  c #3A012E",
"O  c #39012D",
"+  c #27011F",
"@  c #87036A",
"#  c #B80591",
"$  c #B6058F",
"%  c #B3048D",
"&  c #2B0122",
"*  c #36012B",
"=  c #670351",
"-  c #C8059E",
";  c #FA06C5",
":  c #F806C4",
">  c #F606C1",
",  c #28011F",
"<  c #89036C",
"1  c #BA0592",
"2  c #B70590",
"3  c #C5059B",
"4  c #E506B4",
"5  c #F506C1",
"6  c #F406C1",
"7  c #F406C0",
"8  c #080007",
"9  c #27011E",
"0  c #690352",
"q  c #C9059E",
"w  c #FA05C5",
"e  c #F803C3",
"r  c #F402BF",
"t  c #F102BD",
"y  c #F003BC",
"u  c #F005BD",
"i  c #F006BD",
"p  c #F105BE",
"a  c #F403C0",
"s  c #F802C3",
"d  c #FA02C4",
"f  c #C9029E",
"g  c #690252",
"h  c #87036B",
"j  c #C9059F",
"k  c #E706B6",
"l  c #F505C1",
"z  c #F200BE",
"x  c #F000BC",
"c  c #F002BC",
"v  c #F105BD",
"b  c #F202BE",
"n  c #F400BF",
"m  c #F500BF",
"M  c #E701B5",
"N  c #C9049E",
"B  c #89046C",
"V  c #F904C3",
"C  c #F111C0",
"Z  c #F332C8",
"A  c #F444CD",
"S  c #F004BD",
"D  c #F444CC",
"F  c #F832CC",
"G  c #FB12C8",
"H  c #B90091",
"J  c #38002C",
"K  c #F100BC",
"L  c #F22EC7",
"P  c #F892E0",
"I  c #FCC7EE",
"U  c #F992E0",
"Y  c #EF00BB",
"T  c #FD92E4",
"R  c #FB2FCE",
"E  c #B7008E",
"W  c #36002A",
"Q  c #F671D8",
"!  c #FDD3F1",
"~  c #FFFFFE",
"^  c white",
"/  c #FFD7F2",
"(  c #FA74D9",
")  c #F530C7",
"_  c #F110C0",
"`  c #F22DC7",
"'  c #FFD7F4",
"]  c #FE74DC",
"[  c #CA30A6",
"{  c #690F54",
"}  c #28001F",
"|  c #FEF2F9",
" . c #FFFFFD",
".. c #FFF7FA",
"X. c #FFD9F2",
"o. c #FC93E0",
"O. c #F42FC7",
"+. c #F88FE0",
"@. c #FFD9F3",
"#. c #F195D8",
"$. c #CC32A9",
"%. c #88006B",
"&. c #2B0021",
"*. c #26011E",
"=. c #F443CC",
"-. c #FCC4ED",
";. c #F3EEF8",
":. c #D9D4F3",
">. c #CBCBF2",
",. c #CBD0F3",
"<. c #D59AE5",
"1. c #E730C8",
"2. c #F53ECB",
"3. c #FCC1EC",
"4. c #DA9EE9",
"5. c #F237D2",
"6. c #BA0091",
"7. c #39002C",
"8. c #850369",
"9. c #F442CC",
"0. c #FCC3ED",
"q. c #8681E3",
"w. c #5A59DB",
"e. c #5A5DDC",
"r. c #8246D4",
"t. c #CD16C3",
"y. c #F740CB",
"u. c #FEC1EC",
"i. c #8749D8",
"p. c #D61CCB",
"a. c #BB0390",
"s. c #39002A",
"d. c #340129",
"f. c #660351",
"g. c #C6059C",
"h. c #F906C4",
"j. c #F000BB",
"k. c #CAC6F0",
"l. c #5A55DA",
"z. c #1D1CCF",
"x. c #1D20D0",
"c. c #5619CB",
"v. c #BF07C0",
"b. c #F841CC",
"n. c #FFC2EC",
"m. c #591DCE",
"M. c #C30DC5",
"N. c #CA049B",
"B. c #6A0251",
"V. c #B4058E",
"C. c #E406B4",
"Z. c #F206BE",
"A. c #1D1DCF",
"S. c #1D22D0",
"D. c #561ACB",
"F. c #BF08C0",
"G. c #F842CC",
"H. c #FFC4ED",
"J. c #571ECD",
"K. c #C00EC3",
"L. c #E905B4",
"P. c #CB059D",
"I. c #F606C2",
"U. c #F106BE",
"Y. c #FFD6F1",
"T. c #FFF6FA",
"R. c #D9DAF5",
"E. c #8688E4",
"W. c #594CD8",
"Q. c #572DD0",
"!. c #8015C7",
"~. c #CC07BF",
"^. c #F631C8",
"/. c #FB91E0",
"(. c #8018C8",
"). c #CC0BC0",
"_. c #F806C1",
"`. c #FC06C5",
"'. c #F306BF",
"]. c #F772D8",
"[. c #FED5F1",
"{. c #F4FCFC",
"}. c #D9E1F7",
"|. c #C89FE6",
" X c #C23CCD",
".X c #E404BD",
"XX c #F211C0",
"oX c #F32EC7",
"OX c #CC08BF",
"+X c #E405BD",
"@X c #F606C0",
"#X c #F891E0",
"$X c #FDC8EE",
"%X c #FFCBEF",
"&X c #FE97E1",
"*X c #F833C8",
"=X c #F301BC",
"-X c #F103BC",
";X c #F306C0",
":X c #F544CD",
">X c #F646CD",
",X c #F635C9",
"<X c #F415C1",
"1X c #F204BC",
"2X c #E206B2",
"3X c #C4059A",
"4X c #B4048E",
"5X c #660350",
"6X c #330128",
"7X c #E406B3",
"8X c #B5058E",
"9X c #36012A",
"0X c #63024E",
"qX c #B5058F",
"wX c #37012B",
"eX c #C7059D",
"rX c #830367",
"tX c #22011B",
"yX c #F706C2",
"uX c #680352",
"iX c #25011D",
"pX c #070005",
"aX c #F806C3",
/* pixels */
"                                                                ",
"                      . X o O O O O o X .                       ",
"                      + @ # $ % % $ # @ +                       ",
"              . & O * = - ; : > > : ; - = * O & .               ",
"              , < 1 2 3 4 5 6 7 7 6 5 4 3 2 1 < ,               ",
"          8 9 0 q w e r t y u i i i i p a s d f g , .           ",
"          9 h j k l r z x c u i i i i v b n m M N B &           ",
"      . , 0 j V r C Z A A Z C c S S c C Z A D F G H J           ",
"      & < q k r K L P I I U L Y c c Y L U I I T R E W           ",
"      O 1 w l C L Q ! ~ ^ / ( ) C _ ` Q ! ~ ^ ' ] [ { } .       ",
"      * 2 e r Z P ! |  . ...X.o.O.` +.! |  . ...@.#.$.%.&.      ",
"  8 *.= 3 r z =.-.~  .;.:.>.,.<.1.2.3.~  .;.:.>.,.4.5.6.7.      ",
"  *.8.- 4 t x 9.0.~  .:.q.w.e.r.t.y.u.~  .:.q.w.e.i.p.a.s.      ",
"d.f.g.h.7 c j.9.0.~  .k.l.z.x.c.v.b.n.~  .k.l.z.x.m.M.N.B.+ .   ",
"V.3 C.7 Z.c j.=.-.~  .k.l.A.S.D.F.G.H.~  .k.l.A.S.J.K.L.P.@ X   ",
"I.7 U.i i y c Z U Y.T.R.E.W.Q.!.~.^./.Y.T.R.E.W.Q.(.)._.`.# o   ",
"7 '.U.i i u u C L ].[.{.}.|. X~..XXXoX].[.{.}.|. XOX+X@Xh.$ O   ",
"i i i i i i i c Y L #X$X%X&X*X=X-Xc Y L #X$X%X&X*X=X-X;X> % O   ",
"i i i i i i i S c C Z :X>X,X<X1Xv S c C Z :X>X,X<X1Xv ;X> % O   ",
"i i i i i i i i i u c j.j.c u i i i i u c j.j.c u i i 7 > % O   ",
"i i i i i i i i i u y c c y u i i i i u y c c y u i i 7 > % O   ",
"i i i i i i i i i i i i i i i i i i i i i i i i i i i 7 > % O   ",
"i i i i i i i i i i i i i i i i i i i i i i i i i i i 7 > % O   ",
"i i i i i i i i i i i U.'.7 7 '.U.i i i i i i i i i i 7 > % O   ",
"i i i i i i i i i i i U.7 I.I.7 U.i i i i i i i i i i 7 > % O   ",
"i i i U.'.'.U.i i U.U.2X3X4X4X3X2XU.U.i i U.'.'.U.i i 7 > % O   ",
"i i i U.7 7 U.i i '.7 3X5X6X6X5X3X7 '.i i U.7 7 U.i i 7 > % O   ",
"i Z.7 7X3X3X7X7 Z.7 > 8X9X    9X8X> 7 Z.7 7X3X3X7X7 Z.;X> % O   ",
"i 7 h.g.0X0Xg.h.7 ;X> qXwX    wXqX> ;X7 h.g.0X0Xg.h.7 ;X> % O   ",
"Z.C.eXrXtXtXrXg.C.5 yX$ o     o $ yX5 C.g.rXtXtXrXg.C.5 yX% O   ",
"> g.uXiXpXpXiXf.3 aX: $ o     o $ : aX3 f.iXpXpXiXf.3 aX: % O   ",
"aX$ wX        d.V.h.h.$ o     o $ h.h.V.d.        d.V.h.h.% O   "
};
