/* XPM */
static char *_914_228c142077af2a3e2174b79120e962eee56eb575d4388722ee8493e988ebb0b8[] = {
/* columns rows colors chars-per-pixel */
"32 32 176 2 ",
"   c #000101",
".  c #01090A",
"X  c #031115",
"o  c #091516",
"O  c #041C1E",
"+  c #061C21",
"@  c #042326",
"#  c #082226",
"$  c #062629",
"%  c #062B2E",
"&  c #09292C",
"*  c #072E31",
"=  c #043336",
"-  c #083639",
";  c #093A3C",
":  c #093B41",
">  c #0A464C",
",  c #0B494E",
"<  c #0D575A",
"1  c #025860",
"2  c #0E5E63",
"3  c #0C6266",
"4  c #156365",
"5  c #12747D",
"6  c #000EF7",
"7  c #0310F7",
"8  c #0010F8",
"9  c #055AF7",
"0  c #1259F5",
"q  c #265BF6",
"w  c #2C5DF8",
"e  c #315EF7",
"r  c #325EF8",
"t  c #465FF7",
"y  c #525CF4",
"u  c #4660F8",
"i  c #4860F8",
"p  c #5762F8",
"a  c #018494",
"s  c #058995",
"d  c #148591",
"f  c #168B96",
"g  c #1C8B95",
"h  c #1B909B",
"j  c #18A1AE",
"k  c #18A5B3",
"l  c #19A9B7",
"z  c #19ABB9",
"x  c #1AB1BE",
"c  c #22AFBD",
"v  c #06BCCB",
"b  c #0CBACB",
"n  c #1BB4C4",
"m  c #1BB7CB",
"M  c #1CBCCA",
"N  c #1C8BF7",
"B  c #268AF5",
"V  c #1CB0E8",
"C  c #09BFF7",
"Z  c #4990F8",
"A  c #5893F9",
"S  c #7694F9",
"D  c #0AC4CB",
"F  c #1EC3CC",
"G  c #1DC3D2",
"H  c #1ECCDD",
"J  c #0FD5D9",
"K  c #1AD5D8",
"L  c #22CECE",
"P  c #23C4D2",
"I  c #26CBDA",
"U  c #26D3D7",
"Y  c #0DD5E4",
"T  c #16D3E5",
"R  c #16D7EF",
"E  c #1EDBEF",
"W  c #0FCBF7",
"Q  c #11CBF6",
"!  c #19CDF7",
"~  c #03DEF6",
"^  c #0BDDF7",
"/  c #10DDF1",
"(  c #1BDFF6",
")  c #20D4E4",
"_  c #21DCED",
"`  c #3DDAE7",
"'  c #21C7F0",
"]  c #21DEF0",
"[  c #2CDDF5",
"{  c #32DAFF",
"}  c #15E0EF",
"|  c #00E2F7",
" . c #0AE1F7",
".. c #00EEFE",
"X. c #14E3F7",
"o. c #1CE3F6",
"O. c #10EFF7",
"+. c #1CEBF6",
"@. c #12E5F8",
"#. c #13EFFE",
"$. c #0BF2FF",
"%. c #19F6FB",
"&. c #16FAFF",
"*. c #1CFEFF",
"=. c #22E4F6",
"-. c #29E5F7",
";. c #25E8F5",
":. c #22E6F9",
">. c #23EAFB",
",. c #32E3F7",
"<. c #33E8F7",
"1. c #3AECF7",
"2. c #33E7F8",
"3. c #2FF1F7",
"4. c #24F4FE",
"5. c #2AF4FF",
"6. c #26FDFF",
"7. c #29FFFF",
"8. c #35F4FF",
"9. c #47DDD9",
"0. c #52DDEB",
"q. c #4AC4F8",
"w. c #76DDE9",
"e. c #54E1EF",
"r. c #41E2F1",
"t. c #42E9F7",
"y. c #50E4F3",
"u. c #54ECF8",
"i. c #44F3FD",
"p. c #4BF4F8",
"a. c #47FFFF",
"s. c #4CFBF8",
"d. c #51F4FA",
"f. c #5BF2F8",
"g. c #55FDFC",
"h. c #78ECF7",
"j. c #8696F9",
"k. c #B5CEF9",
"l. c #BBCEF9",
"z. c #B3DBF9",
"x. c #99E8F6",
"c. c #8AFDFC",
"v. c #9CF2FC",
"b. c #A1ECF7",
"n. c #A3F3F9",
"m. c #A3FDFF",
"M. c #ADFEF9",
"N. c #BAFFFB",
"B. c #DEC5EC",
"V. c #CDCEF5",
"C. c #C1CFF9",
"Z. c #CED2F9",
"A. c #CEDEFA",
"S. c #D3DEF9",
"D. c #E0D5FA",
"F. c #CFEFF7",
"G. c #C4E4FD",
"H. c #D1EFF6",
"J. c #CCF5FA",
"K. c #CFFCFC",
"L. c #DDF2F6",
"P. c #D6F7F9",
"I. c #D3FDFB",
"U. c #DDFBFA",
"Y. c #E5EDEF",
"T. c #FFF7EC",
"R. c #E4E0F9",
"E. c #F2E4FA",
"W. c #E4F2F5",
"Q. c #E6F1FA",
"!. c #E5FCFA",
"~. c #FFF7F4",
"^. c #FFFEF6",
"/. c #FFF7FA",
"(. c #F6FFFC",
"). c #FFFEFA",
/* pixels */
"                    . .                                         ",
"                      . @ * * % % % % % % % % % % % % % & * - ; ",
"                .     $ d m n j l z z z z z l z z z z l j l M G ",
"                    X 3 K 7.7.5.6.6.6.6.6.6.6.6.6.6.6.6.6.4._ H ",
"            .     + a Y *.6.6.6.5.5.4.4.4.4.4.4.4.4.>.6.7.L 3 $ ",
"                X 4 9.g.{ V V ' R } _ _ ] ] _ _ _ =.=._ P 5 O   ",
"        .     @ a ` N.G.A 0 q B Q O.+.=.=.=.=.=._ >.4.M >     . ",
"            X 2 U c.(.B.y 6 8 w q.s.3.( =.=.=.=._ 4.6.M ,       ",
"    .     % s ` v.(.).V.t 6 6 t k.N.d.^ X.-.:.:.=.:.=.=.H 5 O   ",
"    .     = D g.I.T.).A.S e w j.E.!.f.~ X.-.;.:.=.=.( 4.6.L < X ",
"    .     = v g.I.~.).Q.S.C.l.R.~.I.u.^ X.-.:.:.=.=.=.>.4._ M k ",
"        o 1 b i.m.W./.).).).).^.!.n.t.@.o.-.=.:.=.:.=.:.>.4.6.6.",
".     @ f T =.] 2.h.L.).).).^.U.h.,.=.=.=.:.=.=.:.:.=.:.4.6.6.6.",
".     - L 7.7./ ~ 2.v.P.J.I.U.v.<.~ @.-.:.=.=.=.:.:.>._ G x x x ",
".     - P 7.4._ o.=.,.1.p.p.g.p.:.o.o.:.=.:.=.=._ 4.6.G 2 $ * : ",
".     * z 4.4.E X.=.1.,.! W C Q ( +.:.=.:.=.=.=.] 4.6.n *     . ",
".     * z 5.5./ ~ 1.M.z.Z 9 0 N W O.+.=.=.=.=.=.] 4.6.n =     . ",
".     - F 6.4.( [ c.(.D.p 8 7 e q.s.8.( =.=.=.=.=.>.6.G 2 $ % : ",
".     - L 6.&.` x.(.).Z.i 8 6 u k.N.d.^ X.-.;.:.=.:.>.E G x z n ",
".     @ g Y  .y.J.^.).A.S r w j.E.!.f.~ X.-.=.:.=.=.=.:.4.6.6.6.",
"        o < v d.K.^.).W.S.C.l.R.~.I.u. .X.-.:.:.=.=.=.:.>.4.6.6.",
"    .     = v a.m.Y./.).).).).).W.n.t.@.o.-.=.=.=.=.=.:.4._ M k ",
"    .     - L 6.8.w.L.).).).).U.h.2.:.:.o.:.:.=.:.=.( 6.6.L < X ",
"          & g Y ..8.n.W.H.F.L.b.2.| @.-.:.=.:.;.=.:.:.=.I 5 O   ",
"            X 3 J 6.i.0.0.y.e.r.=.X.o.=.=.=.=.=.=.>.4.M ,     . ",
"        .     # g ) #.$.$.$.$.#.;.[ =.=.=.=.=.=._ 4.6.M >       ",
"                X 2 K *.*.%.&.%.=._ _ o._ _ =._ _ o.] _ G 5 O   ",
"            .     $ h I P c c P =.6.4.4.4.4.4.4.4.4.>.6.7.L 3 $ ",
"                  . & ; ; @ O 4 L 6.6.6.6.6.6.6.6.6.6.6.7.3.E H ",
"                  .     .     @ d F x j l z z l z z z k j z M G ",
"                              . @ * * * % % % % % % % % & * - ; ",
"                    . . . . . .                                 "
};
