/* XPM */
static char *_8960_bd7d7bb9b01912e9aa0ccf0bdf8017ef5f3c4bc75532b5062fad183a43a76cd2[] = {
/* columns rows colors chars-per-pixel */
"32 32 172 2 ",
"   c #000101",
".  c #01090A",
"X  c #000E14",
"o  c #031115",
"O  c #091516",
"+  c #041C1E",
"@  c #061C21",
"#  c #042326",
"$  c #082226",
"%  c #062629",
"&  c #062B2E",
"*  c #09292C",
"=  c #072E31",
"-  c #043336",
";  c #083639",
":  c #093A3C",
">  c #093B41",
",  c #0A464C",
"<  c #0B494E",
"1  c #0D575A",
"2  c #025860",
"3  c #0E5E63",
"4  c #0C6266",
"5  c #156365",
"6  c #12747D",
"7  c #000EF7",
"8  c #0310F7",
"9  c #055AF7",
"0  c #1259F5",
"q  c #2C5DF8",
"w  c #315EF7",
"e  c #325EF8",
"r  c #465FF7",
"t  c #525CF4",
"y  c #4660F8",
"u  c #4860F8",
"i  c #5762F8",
"p  c #018494",
"a  c #058995",
"s  c #148591",
"d  c #168B96",
"f  c #1C8B95",
"g  c #1B909B",
"h  c #18A1AE",
"j  c #18A5B3",
"k  c #19A9B7",
"l  c #19ABB9",
"z  c #1AB1BE",
"x  c #22AFBD",
"c  c #06BCCB",
"v  c #0CBACB",
"b  c #1BB4C4",
"n  c #1CBCCA",
"m  c #1C8BF7",
"M  c #268AF5",
"N  c #1CB0E8",
"B  c #07BEF7",
"V  c #21B7EE",
"C  c #4990F8",
"Z  c #5893F9",
"A  c #7694F9",
"S  c #0AC4CB",
"D  c #1EC3CC",
"F  c #1ECCCB",
"G  c #1DC3D2",
"H  c #1ECCDD",
"J  c #0FD5D9",
"K  c #1AD5D8",
"L  c #22CECE",
"P  c #23C4D2",
"I  c #26CBDA",
"U  c #26D3D7",
"Y  c #0DD5E4",
"T  c #16D3E5",
"R  c #16D7EF",
"E  c #1EDBEF",
"W  c #0FCBF7",
"Q  c #11CBF6",
"!  c #19CDF7",
"~  c #03DEF6",
"^  c #0BDDF7",
"/  c #10DDF1",
"(  c #1BDFF6",
")  c #20D4E4",
"_  c #21DCED",
"`  c #3DDAE7",
"'  c #21C7F0",
"]  c #21DEF0",
"[  c #2CDDF5",
"{  c #32DAFF",
"}  c #00E2F7",
"|  c #0AE1F7",
" . c #0DEDF5",
".. c #00EEFE",
"X. c #14E3F7",
"o. c #1CE3F6",
"O. c #10EFF7",
"+. c #1CEBF6",
"@. c #13EFFE",
"#. c #0BF2FF",
"$. c #19F6FB",
"%. c #16FAFF",
"&. c #1CFEFF",
"*. c #22E4F6",
"=. c #29E5F7",
"-. c #25E8F5",
";. c #22E6F9",
":. c #23EAFB",
">. c #32E3F7",
",. c #33E8F7",
"<. c #3AECF7",
"1. c #2FF1F7",
"2. c #24F4FE",
"3. c #2AF4FF",
"4. c #26FDFF",
"5. c #29FFFF",
"6. c #35F4FF",
"7. c #47DDD9",
"8. c #52DDEB",
"9. c #4AC4F8",
"0. c #76DDE9",
"q. c #54E1EF",
"w. c #41E2F1",
"e. c #42E9F7",
"r. c #50E4F3",
"t. c #54ECF8",
"y. c #44F3FD",
"u. c #4BF4F8",
"i. c #47FFFF",
"p. c #4CFBF8",
"a. c #51F4FA",
"s. c #5BF2F8",
"d. c #55FDFC",
"f. c #78ECF7",
"g. c #8696F9",
"h. c #B5CEF9",
"j. c #BBCEF9",
"k. c #B3DBF9",
"l. c #99E8F6",
"z. c #8AFDFC",
"x. c #9CF2FC",
"c. c #A1ECF7",
"v. c #A3F3F9",
"b. c #A3FDFF",
"n. c #ADFEF9",
"m. c #BAFFFB",
"M. c #DEC5EC",
"N. c #CDCEF5",
"B. c #C1CFF9",
"V. c #CED2F9",
"C. c #CEDEFA",
"Z. c #D3DEF9",
"A. c #CFEFF7",
"S. c #C4E4FD",
"D. c #D1EFF6",
"F. c #CCF5FA",
"G. c #CFFCFC",
"H. c #DDF2F6",
"J. c #D6F7F9",
"K. c #D3FDFB",
"L. c #DDFBFA",
"P. c #E5EDEF",
"I. c #FFF7EC",
"U. c #E4E0F9",
"Y. c #F2E4FA",
"T. c #E4F2F5",
"R. c #E6F1FA",
"E. c #E5FCFA",
"W. c #FFFEF6",
"Q. c #FFF7FA",
"!. c #F6FFFC",
"~. c #FFFEFA",
/* pixels */
"                                . . . . . .                     ",
": ; = % & & & & & & & & & = - # .                               ",
"G n l h k l l l l l l k j z n s $     .       .                 ",
"H _ 2.5.5.4.4.5.4.4.4.4.4.5.5.U 3 @ $ : : * .                   ",
"% 4 L 5.4.-.2.2.2.2.2.2.2.4.2.-.P x x P I g $     .             ",
"  + 6 G _ *.o.E ] ] ] ] _ _ _ *.$.%.%.%.%.K 4 o                 ",
".     , n 2.2._ ] *.*.*.*.] =.-.@.#.#.#.#.@.) f $     .         ",
".     < n 2.2._ *.*.*.;.-.o.X.o.w.q.q.8.8.y.4.J 4 o             ",
"  + 6 I *.*.;.*.*.;.o.-.=.X.} ,.c.H.A.D.T.v.6...Y f &           ",
"o 1 F 4.4.E *.;.*.*.*.*.;.*.,.f.L.~.~.~.~.H.0.6.5.L ;     .     ",
"j n ] 2.:.*.*.;.*.*.=.X.X.e.c.E.~.~.~.~.~.Q.P.b.i.v -     .     ",
"5.4.2.:.;.*.;.;.;.-.=.X.| t.K.Q.U.j.B.Z.R.~.W.K.a.c 1 o         ",
"4.5.5.2.:.*.;.;.*.;.=.X.~ s.E.Y.g.q e A C.~.W.F.r.| T f $     . ",
"b l l G _ :.;.*.;.*.=.X.^ a.m.h.y 7 7 u V.~.!.l.` %.&.L :     . ",
"> & % 3 G 2.2.] *.*.;.*.( 1.p.9.e 8 7 i Z.Q.z.[ ( 3.5.D ;     . ",
".     - b 4.2.] *.*.;.*.*.:.O.W m 0 9 C k.n.<.~ / 3.2.l =     . ",
".     - b 4.2._ *.*.*.;.;.;.o.( Q W B ! >.<.*.( E 2.2.l -     . ",
"> = $ 3 G 2.2.] *.*.;.;.;.o.o.-.y.d.a.u.e.=.*.o.E 2.5.D ;     . ",
"z l z G E :.;.;.*.;.*.-.=.X.} ,.v.L.G.F.J.x.,.~ / 3.5.F ;     . ",
"4.5.4.2.-.;.*.;.*.*.*.;.;.;.,.f.L.~.W.W.~.L.f.,.o.*.U d $     . ",
"5.4.2.:.;.;.*.*.;.*.-.o.X.e.c.E.~.~.~.~.~.Q.T.b.y.v 2 O         ",
"j n ] 2.:.*.*.;.*.;.=.X.| t.K.Q.U.j.B.Z.R.W.Q.K.d.S -     .     ",
"o 1 F 5.2.] *.*.-.*.=.X.~ s.E.Y.g.q w A C.W.I.K.d.S -     .     ",
"  + 6 H *.;.;.*.*.*.-.X.^ a.m.h.y 7 7 r N.~.!.x.` a %     .     ",
".     < n 4.2.] *.*.-.*.( 1.p.9.w 8 7 t M.!.z.I 3 o             ",
".     , n 2.:._ *.*.*.] ] +. .Q M 0 0 Z S.m.` p @     .         ",
"  + 6 G _ *.*._ _ ( _ *.] ( E R ' V N { d.7.5 X                 ",
"% 4 L 5.4.:.2.2.2.2.2.2.2.2.3.4.4.4.4.&.Y a #     . .           ",
"H ) 2.5.4.4.4.4.4.4.5.4.5.4.4.5.2.5.5.U 4 X                     ",
"G n k h j l l l l l l k l l k k h b n s $     .                 ",
"> : = * & & & & & & & & & & & & & = = # .                       ",
"                                        . .                     "
};
