/* XPM */
static char *_0375_3625f73eefd61051ed84360e9e5c6d2b2f999916d101fc23ff56f1d96ca4c1e9[] = {
/* columns rows colors chars-per-pixel */
"32 32 75 1 ",
"  c #FA6C00",
". c #BF4F00",
"X c #F06700",
"o c #C35100",
"O c #FE6E00",
"+ c #BC4F00",
"@ c white",
"# c black",
"$ c #FF7100",
"% c #360A00",
"& c #FB6C00",
"* c #F96A00",
"= c #6A2500",
"- c #CE5600",
"; c #FDC090",
": c #FA6B00",
"> c #FB8620",
", c #F96800",
"< c #310800",
"1 c #1E0200",
"2 c #FFE7D4",
"3 c #FB6D00",
"4 c #D25600",
"5 c #FE6E00",
"6 c #FF6D00",
"7 c #190100",
"8 c #230300",
"9 c #D45A00",
"0 c #FFE0C7",
"q c #8C3600",
"w c #CAD3FC",
"e c #023BFE",
"r c #FD6A00",
"t c #FB9139",
"y c #FF8A22",
"u c #FFF8F1",
"i c #4E50C5",
"p c #FA7500",
"a c #FF953A",
"s c #903900",
"d c #FCAD6D",
"f c #FEDCC4",
"g c #FF881E",
"h c #D9E1FF",
"j c #F2F4FD",
"k c #D57621",
"l c #D4631F",
"z c #FFDCC0",
"x c #FE9131",
"c c #4F75FE",
"v c #8299FB",
"b c #D9DCF9",
"n c #4F71F7",
"m c #FB7500",
"M c #8F3400",
"N c #FD7700",
"B c #FF7900",
"V c #6D3000",
"C c #4F6AEF",
"Z c #C55F31",
"A c #FFB16D",
"S c #7F558E",
"D c #8376BF",
"F c #C9B9D3",
"G c #C6806C",
"H c #C96437",
"J c #D55B00",
"K c #DD7437",
"L c #EF8332",
"P c #D46B31",
"I c #F88B39",
"U c #D7BAC0",
"Y c #DCBEC4",
"T c #FA4F00",
"R c #BF6700",
/* pixels */
"################################",
"################################",
"################################",
"############8%%%%%%8############",
"###########1soo..oos1###########",
"########8%<=9$$$$$$4=<%8########",
"#######1Mo.-XOO55O6X-.os1#######",
"######1Vkaaym****p>tayB4=1######",
"#####1Mk;00;>,**,>;00;gX4q1#####",
"####1VkA2@@2d>pp>A2@@2dgB9=1####",
"###8Mk;2u@@u2;>>;2u@@u2;yX4s8###",
"###%oIYwwbj@@zxLUwwbj@@ftr6o%###",
"###%oKDccvb@@zxPDccvb@@ftr6o%###",
"##1=9Hieenw@@zxZieenw@@ftr6.<###",
"#8qJXHieenw@@zxZieenw@@ftr6+<###",
"#%o$$lSiCvhu2;glSiCvhu2;>rr-=1##",
"#%.$6XlGFhj2d>pXlGFhj2d>p  X9q8#",
"#%+$5:rg;00;>,*:rg;00;>,*  O$o%#",
"#%+$5 &Nyat>p** &Nyat>p**  O$.%#",
"#%+$5  *,,,,*    *,,,,*    5$+%#",
"#%+$5  ******    ******    5$+%#",
"#%+$5                      5$+%#",
"#%+$5                      5$+%#",
"#%+$5         3553         5$+%#",
"#%+$5         5$$5         5$+%#",
"#%+$5 33     X-++-X     33 5$+%#",
"#%+65 OO   35-=<<=-53   OO 56+%#",
"#%+$$X--X535$.<##<.$535X--X$$+%#",
"#%+$$-==-$55$.<##<.$55$-==-$$+%#",
"#%.X9q77q-XO$.%##%.$OX-q77q9X.%#",
"#%o9=7##7=-$$.%##%.$$-=7##7=9o%#",
"#%oo%####<+$$.%##%.$$+<####%oo%#"
};
