/* XPM */
static char *_6392_d69ad640663723f8af01d9214b7138abe2aa3d267add994113293305c2947ef0[] = {
/* columns rows colors chars-per-pixel */
"32 32 227 2 ",
"   c black",
".  c #0C0500",
"X  c #2D1300",
"o  c #3E1B00",
"O  c #3D1A00",
"+  c #3C1A00",
"@  c #291200",
"#  c #8E3E00",
"$  c #C15400",
"%  c #C05300",
"&  c #BD5200",
"*  c #3B1900",
"=  c #381700",
"-  c #6B2C00",
";  c #D05800",
":  c #FF6F00",
">  c #FF7000",
",  c #FF7100",
"<  c #D05A00",
"1  c #6B2D00",
"2  c #381600",
"3  c #3B1700",
"4  c #2D1200",
"5  c #C15300",
"6  c #BE5000",
"7  c #CC5500",
"8  c #ED6300",
"9  c #FE6C00",
"0  c #FE6D00",
"q  c #FD6E00",
"w  c #FE6E00",
"e  c #ED6600",
"r  c #CC5600",
"t  c #BE4F00",
"y  c #C05000",
"u  c #8E3B00",
"i  c #291100",
"p  c #090400",
"a  c #281100",
"s  c #6D2E00",
"d  c #D15800",
"f  c #FF770C",
"g  c #FF892D",
"h  c #FF923F",
"j  c #FC903F",
"k  c #FA852D",
"l  c #F9730C",
"z  c #F96A00",
"x  c #F96B00",
"c  c #FB730C",
"v  c #FF872D",
"b  c #FF933F",
"n  c #FF943F",
"m  c #D2742D",
"M  c #6D360C",
"N  c #280F00",
"B  c #090300",
"V  c #8C3D00",
"C  c #F06300",
"Z  c #FF8629",
"A  c #FFBF8E",
"S  c #FFDDC5",
"D  c #FFDCC5",
"F  c #FCBD8E",
"G  c #FA8329",
"H  c #F96700",
"J  c #FB8429",
"K  c #FFBE8E",
"L  c #FFDEC5",
"P  c #F4B98E",
"I  c #D27229",
"U  c #8C3800",
"Y  c #6D2F00",
"T  c #D15A00",
"R  c #FE8529",
"E  c #FBAA6D",
"W  c #FEE3D2",
"Q  c white",
"!  c #FFE6D2",
"~  c #FFAD6D",
"^  c #FC8528",
"/  c #FA720A",
"(  c #F9720A",
")  c #FA8328",
"_  c #FCAA6D",
"`  c #FFE8D2",
"'  c #FFB06D",
"]  c #D47429",
"[  c #6E360C",
"{  c #0C0400",
"}  c #D15900",
"|  c #F06600",
" . c #FE872D",
".. c #FEBE8E",
"X. c #FFF5F1",
"o. c #FFFEFF",
"O. c #FFF9F1",
"+. c #FFE7D2",
"@. c #FFBE8C",
"#. c #FB8428",
"$. c #FCBB8C",
"%. c #FFFAF1",
"&. c #FFE9D2",
"*. c #F8BC8E",
"=. c #D3752D",
"-. c #FF6E00",
";. c #FE6B00",
":. c #FA8F3E",
">. c #FEDAC2",
",. c #F2F0FA",
"<. c #D7DAF9",
"1. c #C8D1FE",
"2. c #C8D4FF",
"3. c #D5B8BE",
"4. c #ED8138",
"5. c #FC8D38",
"6. c #FED9BE",
"7. c #DABCC2",
"8. c #F8893E",
"9. c #C25100",
"0. c #3B1800",
"q. c #FD6B00",
"w. c #FA8F3D",
"e. c #FED9C1",
"r. c #8095F8",
"t. c #5172FC",
"y. c #5174FF",
"u. c #7E72BB",
"i. c #D26B37",
"p. c #FE8F37",
"a. c #FFD9BD",
"s. c #8376BF",
"d. c #DB723D",
"f. c #C25200",
"g. c #391900",
"h. c #BC5200",
"j. c #FF6C00",
"k. c #FD6A00",
"l. c #C8CEF9",
"z. c #516FF7",
"x. c #113FFB",
"c. c #1141FF",
"v. c #4F4DBA",
"b. c #C35F37",
"n. c #FF9037",
"m. c #FFDABD",
"M. c #5250BE",
"N. c #C8653D",
"B. c #D25A00",
"V. c #6E2F00",
"C. c #0B0500",
"Z. c #381800",
"A. c #BB5100",
"S. c #113FFC",
"D. c #1142FF",
"F. c #4F4EBC",
"G. c #C36037",
"H. c #FF9038",
"J. c #FFDBBF",
"K. c #5050C0",
"L. c #C5643D",
"P. c #F36800",
"I. c #D35B00",
"U. c #2C1300",
"Y. c #6B2E00",
"T. c #CC5900",
"R. c #FD6C00",
"E. c #FC6B00",
"W. c #FFE5D2",
"Q. c #FFF8F1",
"!. c #D7DDFF",
"~. c #8098FE",
"^. c #516AEF",
"/. c #5058CF",
"(. c #7D568A",
"). c #D26328",
"_. c #FE8628",
"`. c #FFBD8C",
"'. c #7D588D",
"]. c #D1652C",
"[. c #BF5300",
"{. c #ED6700",
"}. c #FA6C00",
"|. c #FFE4D2",
" X c #F2F7FF",
".X c #D7E1FF",
"XX c #C7B7D1",
"oX c #C47E6C",
"OX c #EC680A",
"+X c #FA730A",
"@X c #D16329",
"#X c #EC680B",
"$X c #F96C00",
"%X c #FFDFC5",
"&X c #FFC18E",
"*X c #FF8829",
"=X c #FA6B00",
"-X c #BA5100",
";X c #FB903F",
":X c #FD923F",
">X c #FD882D",
",X c #FD750C",
"<X c #FB6C00",
"1X c #F96900",
"2X c #FC6D00",
"3X c #FA6D00",
"4X c #EA6600",
"5X c #CB5800",
"6X c #6A2E00",
"7X c #351700",
"8X c #EC6700",
"9X c #FB6D00",
"0X c #BC5100",
"qX c #CD5900",
"wX c #672D00",
"eX c #F36900",
"rX c #D25B00",
"tX c #883B00",
"yX c #230F00",
"uX c #CE5900",
"iX c #3D1B00",
"pX c #6E3000",
"aX c #261100",
"sX c #070300",
"dX c #CC5800",
"fX c #3A1900",
"gX c #361700",
/* pixels */
"                                                                ",
"                                                                ",
"                                                                ",
"                      . X o O + + O o X .                       ",
"                      @ # $ % & & % $ # @                       ",
"              . X * = - ; : : : : > , < 1 2 3 4 .               ",
"              @ # 5 6 7 8 9 0 q q w w e r t y u i               ",
"          p a s d f g h j k l z x x z c v b n m M N B           ",
"          a V d C Z A S D F G H z z H J K L L P I U N           ",
"      . @ Y T f R E W Q Q ! ~ ^ / ( ) _ W Q Q ` ' ] [ i {       ",
"      X # } |  ...W X.o.Q O.+.@.#.) $.W X.o.Q %.&.*.=.u 4       ",
"      o $ -.;.:.>.Q o.,.<.1.2.3.4.5.6.Q o.,.<.1.2.7.8.9.0.      ",
"      O % -.q.w.e.Q Q <.r.t.y.u.i.p.a.Q Q <.r.t.y.s.d.f.0.      ",
"      g.h.j.k.w.e.Q Q l.z.x.c.v.b.n.m.Q Q l.z.x.c.M.N.B.V.@ C.  ",
"      Z.A.j.k.:.>.Q Q l.z.S.D.F.G.H.J.Q Q l.z.S.D.K.L.P.I.V U.  ",
"  C.@ Y.T.R.E.k F W.Q.!.~.^./.(.)._.`.W.Q.!.~.^./.'.].: , [.+   ",
"  U.V < {.}.}.l G _ |. X.XXXoX).OX+X#._ |. X.XXXoX@X#X-.> & +   ",
"  + [., w $X$Xz H G F S %X&X*Xk.=Xz H G F S %X&X*Xk.=Xq : -X*   ",
"  + & > w $X$Xx z l k ;X:X>X,X<X}.x z l k ;X:X>X,X<X}.q : -X*   ",
"  * -X: q $X$X$X$Xx 1X1X1X1Xx $X$X$X$Xx 1X1X1X1Xx $X$Xq : -X*   ",
"  * -X: q $X$X$X$Xx z z z z x $X$X$X$Xx z z z z x $X$Xq : -X*   ",
"  * -X: q $X$X$X$X$X$X$X$X$X$X$X$X$X$X$X$X$X$X$X$X$X$Xq : -X*   ",
"  * -X: q $X$X$X$X$X$X$X$X$X$X$X$X$X$X$X$X$X$X$X$X$X$Xq : -X*   ",
"  * -X: q $X$X$X$X$X$X$X$X}.2Xq q 2X}.$X$X$X$X$X$X$X$Xq : -X*   ",
"  * -X: q $X$X$X$X$X$X$X$X3Xq : : q 3X$X$X$X$X$X$X$X$Xq : -X*   ",
"  * -X: q }.2X2X}.$X$X}.3X4X5XA.A.5X4X3X}.$X$X}.2X2X}.q : -X*   ",
"  * -X-.q 3Xw w 3X$X$X2Xq 5X6X7X7X6X5Xq 2X$X$X3Xw w 3Xq -.-X*   ",
"  * -X: : 8X5X5X8Xq 9Xq : 0XZ.    Z.0X: q 9Xq 8X5X5X8X: : -X*   ",
"  * -X> , qXwXwXqX> q q : h.g.    g.h.: q q > qXwXwXqX, > -X*   ",
"  + 0XeXrXtXyXyXtXuX{.w : & +     + & : w {.uXtXyXyXtXrXeX0X+   ",
"  iX[.rXpXaXsXsXaX6XdX> > & +     + & > > dX6XaXsXsXaXpXrX[.iX  ",
"  o % $ fX        gXA.> > & +     + & > > A.gX        fX$ % o   "
};
