/* XPM */
static char *_523_c43e9eae7931588bf95406654e6ac316bdd24b135833914c23c25f4893c8ceb9[] = {
/* columns rows colors chars-per-pixel */
"32 32 75 1 ",
"  c #FA6C00",
". c #BF4F00",
"X c #F06700",
"o c #C35100",
"O c #FE6E00",
"+ c #BC4F00",
"@ c white",
"# c black",
"$ c #FF7100",
"% c #360A00",
"& c #FB6C00",
"* c #F96A00",
"= c #6A2500",
"- c #CE5600",
"; c #FDC090",
": c #FA6B00",
"> c #FB8620",
", c #F96800",
"< c #310800",
"1 c #1E0200",
"2 c #FFE7D4",
"3 c #FB6D00",
"4 c #D25600",
"5 c #FE6E00",
"6 c #FF6D00",
"7 c #190100",
"8 c #230300",
"9 c #D45A00",
"0 c #FFE0C7",
"q c #8C3600",
"w c #CAD3FC",
"e c #023BFE",
"r c #FD6A00",
"t c #FB9139",
"y c #FF8A22",
"u c #FFF8F1",
"i c #4E50C5",
"p c #FA7500",
"a c #FF953A",
"s c #903900",
"d c #FCAD6D",
"f c #FEDCC4",
"g c #FF881E",
"h c #D9E1FF",
"j c #F2F4FD",
"k c #D57621",
"l c #D4631F",
"z c #FFDCC0",
"x c #FE9131",
"c c #4F75FE",
"v c #8299FB",
"b c #D9DCF9",
"n c #4F71F7",
"m c #FB7500",
"M c #8F3400",
"N c #FD7700",
"B c #FF7900",
"V c #6D3000",
"C c #4F6AEF",
"Z c #C55F31",
"A c #FFB16D",
"S c #C96437",
"D c #7F558E",
"F c #8376BF",
"G c #C9B9D3",
"H c #C6806C",
"J c #D55B00",
"K c #DD7437",
"L c #EF8332",
"P c #D46B31",
"I c #F88B39",
"U c #D7BAC0",
"Y c #DCBEC4",
"T c #FA4F00",
"R c #BF6700",
/* pixels */
"################################",
"##############8%%%%%%%%%%%%%%%%%",
"#############1qo.++++++++++++.oo",
"##########8%%=J$$$$$$$$$$$6$$X9o",
"#########1Moo9X$65555555555$$9=%",
"########1VkIKSSlX:         X-q7#",
"#######1Mk;YFiiDlr&      3O-=7##",
"######1VkA2wceeiHgN**    3O-=7##",
"#####8Mk;2uwceeCG;y,*      X-q7#",
"#####%oa0@@bvnnvh0a,*      5$-=<",
"#####<.a0@@jbwwhj0t,*      35X-+",
"####1=-y;2u@@@@u2;>,*     355O$$",
"###8s9Xm>d2@@@@2d>p**     5$$$$$",
"###%o$O*,>;zzzz;>,*      X-.....",
"###%o$O**p>xxxxgp**    35-=<<%%%",
"###%.$5**p>LPZZlX:     5$+<#####",
"###%.$5*,>;UFiiDlr&    5$+<#####",
"###%o$Op>A2wceeiHgN**  35-=<<%%%",
"###%o$6>;2uwceeCG;y,*    X-.....",
"###8s4Xt0@@bvnnvh0a,*     5$$$$$",
"####1=-a0@@jbwwhj0t,*     355O$$",
"#####<.y;2u@@@@u2;>,*      35X-+",
"#####%oBgd2@@@@2d>p**      5$-=<",
"#####8s4Xg;ffff;>,*        X-q7#",
"######1=4Bytttt>p**      3O-=7##",
"#######1q9Xrrrrr         3O-=7##",
"########1=46666r           X-q7#",
"#########1soo.+-XOO55555555$$9=%",
"##########8%%<<=9$$$$$$$$$6$$X9o",
"###############1qo.++++++++++.oo",
"################8%%%%%%%%%%%%%%%",
"################################"
};
