/* XPM */
static char *_799_a294fddde16e79386163779588eb086d3b9daca859cc7318c64992714def70ca[] = {
/* columns rows colors chars-per-pixel */
"32 32 75 1 ",
"  c #F96C00",
". c #FB6C00",
"X c white",
"o c #F06700",
"O c #FE6E00",
"+ c #F96900",
"@ c #BC4F00",
"# c black",
"$ c #FF7100",
"% c #360A00",
"& c #C35100",
"* c #6A2500",
"= c #FA6B00",
"- c #CE5600",
"; c #FF8921",
": c #FC6D00",
"> c #BF4F00",
", c #1E0200",
"< c #310800",
"1 c #BE4F00",
"2 c #FB7600",
"3 c #FFE7D4",
"4 c #D25600",
"5 c #FB8620",
"6 c #8F3700",
"7 c #FF6D00",
"8 c #190100",
"9 c #230300",
"0 c #D45A00",
"q c #FE6B00",
"w c #FB9139",
"e c #CAD3FC",
"r c #023BFE",
"t c #FFE0C7",
"y c #FFF8F1",
"u c #FF953A",
"i c #FFC08F",
"p c #FCBF90",
"a c #8A3500",
"s c #D57621",
"d c #F2F4FD",
"f c #FE9131",
"g c #D4631F",
"h c #4E4DBF",
"j c #D9E1FF",
"k c #8299FB",
"l c #4F75FE",
"z c #D9DCF9",
"x c #4F71F7",
"c c #FCAD6D",
"v c #6D56C4",
"b c #FFDCC0",
"n c #6D3000",
"m c #4E56D1",
"M c #FEDCC4",
"N c #D96F34",
"B c #F6BD90",
"V c #8376BF",
"C c #C55F31",
"Z c #FFC390",
"A c #7F558E",
"S c #FFE1C7",
"D c #C6806C",
"F c #C96437",
"G c #C9B9D3",
"H c #4F6AEF",
"J c #8E3200",
"K c #FBAD6D",
"L c #D55B00",
"P c #FFB06D",
"I c #EF8332",
"U c #D7BAC0",
"Y c #FFB26D",
"T c #DCBEC4",
"R c #FBFF00",
/* pixels */
"################################",
"%%%%%%%%%%%%%%%9################",
"&&1@@@@@@@@@@>&6,###############",
"&0o$$7$$$$$$$$$0*<<%%9##########",
"%*0$$OOOOOOOOOOo-@1&&6,#########",
"#8a-o =        =q77774*,########",
"##8*-O:        =.qqqqo06,#######",
"##8*-O:       +25wwww;24*,######",
"#8a-o =      ++5pMMMMi;o469#####",
"<*-$O        25c3XXXX3K;2&%#####",
"@-oO.      ++5p3yXXXXy3i;><#####",
"$$OOO:=    ++wtdjeezdXXtu-*,####",
"$$$$$O     ++uSjkxxkzXXtwo469###",
">>>11-o =  ++;ZGHrrley3p5q$&%###",
"%%%<<*-O:    2;Dmrrle3P52O$&%###",
"#####<@$O    .qgAhhVUi5++O$>%###",
"#####<@$O    ==ogCCNI52+ O$>%###",
"%%%<<*-O:     +2;ffff52+ O$&%###",
">>>11-o =    ++5ibbbbp5++O$&%###",
"$$$$$O       25c3XXXX3c52o069###",
"$$OOO:=    ++5p3yXXXXy3i;-*,####",
"@-oO.      ++wtdjeezdXXtu><#####",
"<*-$O      ++uSjkxxkzXXtu&%#####",
"#8a-o =    ++;ZGHrrley3Bs69#####",
"##8*-O:      2;Dmrrle3Ysn,######",
"##8*-O:      .qgAhhVTBsJ,#######",
"#8a-o =      ==ogFFNwsn,########",
"%*0$$OOOOOOOOOO7$o0&&6,#########",
"&0o$$7$$$$$$$$$$$L*%%9##########",
"&&1@@@@@@@@@@@@>&6,#############",
"%%%%%%%%%%%%%%%%%9##############",
"################################"
};
