/* XPM */
static char *_4408_77cdd7a33ce1596ad50ce60cc8a85f2a1ccf3ad720c73c96b04ad697d3ca73af[] = {
/* columns rows colors chars-per-pixel */
"32 32 145 2 ",
"   c black",
".  c #03E5F7",
"X  c #0AADBA",
"o  c #13E1F0",
"O  c #002327",
"+  c #17E7F7",
"@  c #FFFFFB",
"#  c #14E8F8",
"$  c #1DFFFF",
"%  c #14E6F7",
"&  c #18F5FF",
"*  c #13DEF0",
"=  c #1BFEFF",
"-  c #10C5D5",
";  c #001A1E",
":  c #000205",
">  c #14E3F3",
",  c #17EEFC",
"<  c #18F4FF",
"1  c #003032",
"2  c #001F23",
"3  c #01E0F6",
"4  c #1BE7F7",
"5  c #19FAFF",
"6  c #19F1FF",
"7  c #1AF7FF",
"8  c #0CBDCC",
"9  c #21FFFF",
"0  c #0DB2C1",
"q  c #2AE9F8",
"w  c #005F64",
"e  c #01F1FF",
"r  c #1FE8F7",
"t  c #0001F7",
"y  c #14E5F5",
"u  c #15EBFB",
"i  c #00272B",
"p  c #0BB1BE",
"a  c #00343A",
"s  c #00141A",
"d  c #0A8D98",
"f  c #4CF8F9",
"g  c #265DF8",
"h  c #1AE4F5",
"j  c #000C11",
"k  c #11CFE0",
"l  c #09A8B5",
"z  c #12CECE",
"x  c #09F9FE",
"c  c #39ECF7",
"v  c #A0EFF8",
"b  c #53FEFE",
"n  c #E8F5F9",
"m  c #15E8F7",
"M  c #0DE7F7",
"N  c #00434B",
"B  c #0AE2F5",
"V  c #002B30",
"C  c #00BFCD",
"Z  c #56F0F8",
"A  c #028694",
"S  c #A3FAFF",
"D  c #DFFBFA",
"F  c #06D6E6",
"G  c #FFF8F9",
"H  c #F6FFFD",
"J  c #03CEF7",
"K  c #E2F1F4",
"L  c #B9FFFB",
"P  c #D7FBF9",
"I  c #BAD0F9",
"U  c #425FF8",
"Y  c #0DBFCE",
"T  c #18EAF6",
"R  c #0CB8C6",
"E  c #0BC7CE",
"W  c #09A3B2",
"Q  c #21F7FF",
"!  c #17D6DA",
"~  c #026466",
"^  c #40F4FD",
"/  c #7BEFF9",
"(  c #D3FFFF",
")  c #39E1ED",
"_  c #0CFFFF",
"`  c #FFFDF8",
"'  c #4FE3F0",
"]  c #037881",
"[  c #18DEF0",
"{  c #01555A",
"}  c #02737C",
"|  c #0DEDF6",
" . c #18F6FD",
".. c #14D1D1",
"X. c #14DDEA",
"o. c #1CF4F8",
"O. c #1BF9F9",
"+. c #27F1F7",
"@. c #00EFF6",
"#. c #04DAEF",
"$. c #005660",
"%. c #FFF7F0",
"&. c #8CFDFC",
"*. c #27E1F6",
"=. c #2EF4FF",
"-. c #E1CFF4",
";. c #03D6DA",
":. c #CFF7FA",
">. c #D0D2F7",
",. c #D2EFF7",
"<. c #F2E6FA",
"1. c #E6E2F9",
"2. c #D5E0F9",
"3. c #45C6F8",
"4. c #D0E0FA",
"5. c #10B6ED",
"6. c #E5FFFA",
"7. c #C3D1F9",
"8. c #00C1F7",
"9. c #015AF7",
"0. c #8898F9",
"q. c #7896F9",
"w. c #38D7E5",
"e. c #14C9F0",
"r. c #43FFFF",
"t. c #78DFEB",
"y. c #C6E6FD",
"u. c #B5DDF9",
"i. c #1BCDDC",
"p. c #4EE9F5",
"a. c #2ADCFF",
"s. c #52DCEA",
"d. c #5562F8",
"f. c #0D8DF7",
"g. c #43DFDB",
"h. c #A6F6FB",
"j. c #1B8CF5",
"k. c #4592F8",
"l. c #505CF4",
"z. c #5695F9",
"x. c #1357F4",
"c. c #0001F8",
"v. c #0354F2",
"b. c #00E5BA",
"n. c #03ADF0",
/* pixels */
"                                                                ",
"                                                                ",
"                                                                ",
"                        ; 1 1 i i 1 1 ;                         ",
"                      : d z E p p E z d :                       ",
"                2 1 V $.k 9 $ & 7 = _ F $.V 1 2                 ",
"              : d E C C + Q 7 6 6 7 x . C C z d :               ",
"            s w w.b b ^ y #.* o 3 * ) p.f r.$ F w s             ",
"          : A ! S ( ( S q 3 B . 3 *.v :.( S =.e ;.d :           ",
"        s ~ ) &.H %.%.n / q % + c &.H @ ` K t.=.= F w ;         ",
"      : A g.L H @ ` ` G D v q c L H @ @ ` G K h.^ e ;.d ;       ",
"    s w F b y.-.>.4.n ` @ P c *.u.-.>.4.n @ @ K s.e _ i.a       ",
"  s A ! x a.z.l.U q.2.@ @ :.f J k.d.U q.2.@ @ ,.' e _ - a       ",
"  i 8 9 $ 5.v.c.t g 7.@ @ P f 8.9.t t g 7.@ @ ,.' e x p ;       ",
"  i 0 $ = 5.x.t t g I @ @ D b 8.9.t t g I @ @ K ' e x 0 j       ",
"  2 W O.5 e.j.g U 0.1.@ D h.^ J f.g U 0.1.@ D v ) e x - w ;     ",
"  O X $ Q #.J 3.I <.G n / q T 3 J 3.I <.G n / q y T y T ! A s   ",
"  O X $ Q B @.f L 6.P v q . . # @.f L 6.P v q . . h [ 5 9 Y i   ",
"  O X $ < o | +.f Z Z c % . M m | +.f Z Z c % . M h * 5 $ R i   ",
"  O X $ & [ h B 3 3 . . + r + % h B 3 3 . . + r 4 y o < O.l O   ",
"  O X $ & o h % . . . . % 4 + m + % . . . . % 4 + y o & = X O   ",
"  O X $ & o y + 4 r r 4 + % m m % + 4 r r 4 + % m y o & $ X O   ",
"  O X $ & o y m + + + + m m m m m m + + + + m m m y o & $ X O   ",
"  O X $ & o > y m m m m m m % y y % m m m m m m y > o & $ X O   ",
"  O X $ & * * o y m m m m y o o o o y m m m m y o * * & $ X O   ",
"  O X $ < > 6 6 u y % m % u 6 < < 6 u % m % y u 6 6 > < $ X O   ",
"  O X = , > 7 5 # * > m y u 7 = = 7 u y m > * # 5 7 > , = X O   ",
"  2 l $ $ * 8 Y % 5 , # u * - R R - * u # , 5 % Y 8 * $ $ l 2   ",
"  2 W 9 9 - N N k $ & u  .- w V V w -  .u & $ k N N - 9 9 W 2   ",
"  O X o...}     ] z o 6 = 0 ;     ; 0 = 6 o z ]     } ..o.X O   ",
"  1 8 X.~ j     j { 8 = $ p O     O p $ = 8 { j     j ~ X.8 1   ",
"  a - k ;         : l $ $ 0 a     a 0 $ $ l :         ; k - a   "
};
