/* XPM */
static char *_462_22963f1fb96fdc4103538718d67cca5f5be06362d75c37b966aff975e2f87832[] = {
/* columns rows colors chars-per-pixel */
"32 32 67 1 ",
"  c #F000BF",
". c #F800C4",
"X c #CB00A0",
"o c #FFFFFE",
"O c #B60090",
"+ c #F900C6",
"@ c #320023",
"# c #F400C2",
"$ c black",
"% c #F200C0",
"& c #19000F",
"* c #E700B7",
"= c #C7009D",
"- c #67004F",
"; c #F62ACB",
": c #2D001F",
"> c #BB0093",
", c #F225C9",
"< c #F540CF",
"1 c #FFD8F2",
"2 c #FA94E3",
"3 c #F201C2",
"4 c #F600C3",
"5 c #FBF6FA",
"6 c #340025",
"7 c #200013",
"8 c #FDC5EF",
"9 c #FDCBEF",
"0 c #CDCCF2",
"q c #850067",
"w c #5950DC",
"e c #DBD8F4",
"r c #63004C",
"t c #89006A",
"y c #8B006C",
"u c #F773DA",
"i c #C92FBD",
"p c #F73CCE",
"a c #5A5ADE",
"s c #550DCF",
"d c #100ED1",
"f c #FA98E0",
"g c #CE00C1",
"h c #E400B4",
"j c #F405C3",
"k c #8207CA",
"l c #DA9EE9",
"z c #C100C2",
"x c #DBE3F7",
"c c #888AE6",
"v c #8883E5",
"b c #CAA1E8",
"n c #1013D2",
"m c #1015D2",
"M c #5524D2",
"N c #D80DCD",
"B c #8A006B",
"V c #FA76DB",
"C c #F231D4",
"Z c #CE00C2",
"A c #CF06C5",
"S c #8442D6",
"D c #C201C5",
"F c #FE76DE",
"G c #C501C7",
"H c #8945DA",
"J c #F800FE",
/* pixels */
".4%            #4O:$$$$$$$$$$$$$",
"O=*#%          %#=-&$$$$$$$$$$$$",
"@-X+#          %%*=t&$$$$$$$$$$$",
"$&q=*%%          #+X-@@7$$$$$$$$",
"$$&r=#%          %#*=>>y7$$$$$$$",
"$$&r=#%             #.+X-&$$$$$$",
"$&q=*%%             %#4*Xt&$$$$$",
":-=+#          3;<<<<;3#+X-7$$$$",
"O=*#%          ,288882, #*Xy7$$$",
"+.4##%%      3,u1oooo1u,34+>@$$$",
"++.44#%      ;215oooo512;#.>@$$$",
"OOOOO=h%%    <95e00e5oo9<%#=-&$$",
"666@:-=#%    <9xcwwveoo9<  *Xt7$",
"$$$$$:O4#    ;fbwdda0512;  4+>6$",
"$$$$$:O4#    j;iMmna01V,3  #+O@$",
"666@:-=#%    %%ZkssSl2;    #4O@$",
"OOOOO=h%%      *gzzA,,3    #4O@$",
"++.44#%        3;pppp,3    #+O@$",
"+.4##%%        ,288882,    4+>6$",
"O=*#%        3,u1oooo1u,3 %*Xt7$",
":-=+#        ;215oooo512;%#=-&$$",
"$&q=*%%      <95e00e5oo9<#.>@$$$",
"$$&r=#%      <9xcwwveoo9<#+>@$$$",
"$$&r=#%      ;fbwdda0512;*Xy7$$$",
"$&q=*%%      j;iMmna01F;+X-7$$$$",
":-=+#        %%ZkssHlfiO>y7$$$$$",
"O=*#%          *ZDGNCi-:@7$$$$$$",
"+.4############4.*X>>t7$$$$$$$$$",
"++.444444444444++X-@@7$$$$$$$$$$",
"OOOOOOOOOOOOOOOO>t&$$$$$$$$$$$$$",
"@@@@@@@@@@@@@@@@67$$$$$$$$$$$$$$",
"$$$$$$$$$$$$$$$$$$$$$$$$$$$$$$$$"
};
