/* XPM */
static char *_3257_d9e58154026868d64db401a551d61afb04c2998a4049955f04078c2ea042e6ce[] = {
/* columns rows colors chars-per-pixel */
"32 32 176 2 ",
"   c #000101",
".  c #01090A",
"X  c #000E14",
"o  c #031115",
"O  c #091516",
"+  c #041C1E",
"@  c #061C21",
"#  c #042326",
"$  c #082226",
"%  c #062629",
"&  c #062B2E",
"*  c #09292C",
"=  c #072E31",
"-  c #043336",
";  c #083639",
":  c #093A3C",
">  c #093B41",
",  c #0A464C",
"<  c #0B494E",
"1  c #0D575A",
"2  c #0E5E63",
"3  c #0C6266",
"4  c #156365",
"5  c #12747D",
"6  c #000EF7",
"7  c #0310F7",
"8  c #0010F8",
"9  c #055AF7",
"0  c #1259F5",
"q  c #2C5DF8",
"w  c #315EF7",
"e  c #325EF8",
"r  c #465FF7",
"t  c #525CF4",
"y  c #4660F8",
"u  c #4860F8",
"i  c #5762F8",
"p  c #018494",
"a  c #058995",
"s  c #148591",
"d  c #168B96",
"f  c #1C8B95",
"g  c #1B909B",
"h  c #18A1AE",
"j  c #18A5B3",
"k  c #19A9B7",
"l  c #19ABB9",
"z  c #1AB1BE",
"x  c #22AFBD",
"c  c #06BCCB",
"v  c #0CBACB",
"b  c #1BB4C4",
"n  c #1BB7CB",
"m  c #1CBCCA",
"M  c #1C8BF7",
"N  c #268AF5",
"B  c #1CB0E8",
"V  c #07BEF7",
"C  c #21B7EE",
"Z  c #4990F8",
"A  c #5893F9",
"S  c #7694F9",
"D  c #0AC4CB",
"F  c #1EC3CC",
"G  c #1ECCCB",
"H  c #1DC3D2",
"J  c #1ECCDD",
"K  c #0FD5D9",
"L  c #1AD5D8",
"P  c #22CECE",
"I  c #23C4D2",
"U  c #26CBDA",
"Y  c #26D3D7",
"T  c #0DD5E4",
"R  c #16D3E5",
"E  c #16D7EF",
"W  c #1EDBEF",
"Q  c #0FCBF7",
"!  c #11CBF6",
"~  c #19CDF7",
"^  c #03DEF6",
"/  c #0BDDF7",
"(  c #10DDF1",
")  c #1BDFF6",
"_  c #20D4E4",
"`  c #21DCED",
"'  c #3DDAE7",
"]  c #21C7F0",
"[  c #21DEF0",
"{  c #2CDDF5",
"}  c #32DAFF",
"|  c #15E0EF",
" . c #00E2F7",
".. c #0AE1F7",
"X. c #0DEDF5",
"o. c #00EEFE",
"O. c #14E3F7",
"+. c #1CE3F6",
"@. c #10EFF7",
"#. c #1CEBF6",
"$. c #12E5F8",
"%. c #13EFFE",
"&. c #0BF2FF",
"*. c #19F6FB",
"=. c #16FAFF",
"-. c #1CFEFF",
";. c #22E4F6",
":. c #29E5F7",
">. c #25E8F5",
",. c #22E6F9",
"<. c #23EAFB",
"1. c #32E3F7",
"2. c #33E8F7",
"3. c #3AECF7",
"4. c #33E7F8",
"5. c #2FF1F7",
"6. c #24F4FE",
"7. c #2AF4FF",
"8. c #26FDFF",
"9. c #29FFFF",
"0. c #35F4FF",
"q. c #47DDD9",
"w. c #52DDEB",
"e. c #4AC4F8",
"r. c #76DDE9",
"t. c #54E1EF",
"y. c #41E2F1",
"u. c #42E9F7",
"i. c #54ECF8",
"p. c #44F3FD",
"a. c #4BF4F8",
"s. c #47FFFF",
"d. c #4CFBF8",
"f. c #51F4FA",
"g. c #5BF2F8",
"h. c #55FDFC",
"j. c #78ECF7",
"k. c #79EEF9",
"l. c #8696F9",
"z. c #B5CEF9",
"x. c #BBCEF9",
"c. c #B3DBF9",
"v. c #99E8F6",
"b. c #8AFDFC",
"n. c #9CF2FC",
"m. c #A1ECF7",
"M. c #A3F3F9",
"N. c #A3FDFF",
"B. c #ADFEF9",
"V. c #BAFFFB",
"C. c #DEC5EC",
"Z. c #CDCEF5",
"A. c #C1CFF9",
"S. c #CED2F9",
"D. c #CEDEFA",
"F. c #D3DEF9",
"G. c #E0D5FA",
"H. c #CFEFF7",
"J. c #C4E4FD",
"K. c #D1EFF6",
"L. c #CCF5FA",
"P. c #DDF2F6",
"I. c #D6F7F9",
"U. c #D3FDFB",
"Y. c #DDFBFA",
"T. c #E5EDEF",
"R. c #FFF7EC",
"E. c #F2E4FA",
"W. c #E4F2F5",
"Q. c #E6F1FA",
"!. c #E5FCFA",
"~. c #FFF7F4",
"^. c #FFFEF6",
"/. c #FFF7FA",
"(. c #F6FFFC",
"). c #FFFEFA",
/* pixels */
"                        . . . . . . . .                         ",
"                                                                ",
"                  . .                     . . .                 ",
"                        $ : ; = = ; : #                         ",
"            .         o f P F l l F P d O         .             ",
"                * ; - 1 R -.8.6.6.9.9.J 1 - - %       .         ",
"        .     o f P v c ..*.6.7.6.6.9.;.c c D a o     .         ",
"            $ 3 T 8.s.f.i.' W ( ) W E ;.p.h.h.' 3 @             ",
"    .     o f K o.0.N.U.L.v.{ ^ +.+.^ 4.N.U.U.n.Y p X     .     ",
"    . . % 3 _ 8.0.r.T.^.^.(.b.3.;.;.:.j.W.~.R.(.b.' 4 #         ",
".     % g L %.p.N.P.~.).).).(.B.2.4.n.Y./.).^.).(.V.q.a X     . ",
".     : U =.&.w.W.).).Q.D.S.G.c.1.u.I.).).Q.D.Z.C.J.h.T 3 $ . . ",
".   . : I -.&.w.K.).).F.S u i Z ~ a.L.^.).F.S r t A } 6.L s #   ",
".     $ x *.&.t.H.).).A.e 6 8 9 V h.U.^.).A.e 6 7 0 B 8.9.n =   ",
".     + x =.&.t.P.).).x.q 6 7 0 Q h.Y.).).x.q 6 7 0 C 8.8.b =   ",
". . # 2 I *.%.y.m.Y.).G.l.y e M ! p.M.Y.^.G.l.r w N ] 8.6.j =   ",
"  # s Y >.;.;.;.4.k.!./.E.z.e.Q E >.4.k.!./.E.z.e.! E 8.8.k *   ",
"  - m 9.8.` :.O. .1.M.U.!.V.d.@.+.O. .4.m.U.!.V.d.X.| 7.9.k &   ",
"  - z 9.6.` ;.+.O.;.u.i.g.f.5.,.,.+.O.;.u.i.g.f.5.#.W 6.9.k =   ",
"  * h 6.6.` ;.>.:.;......./ ) ;.,.;.:.;.$.../ / ) ;.` 6.8.k &   ",
"  & k 8.6.) ;.;.>.;.O.O.O.+.+.;.;.;.>.;.O.O.O.O.+.;.` 6.9.l &   ",
"  & k 8.6.[ ;.;.;.,.:.:.:.,.,.;.;.,.,.;.:.:.:.>.;.;.;.6.8.k &   ",
"  & l 9.6.[ ;.;.;.,.,.>.,.>.;.;.;.;.,.,.;.>.,.;.;.;.` 6.8.k &   ",
"  = k 8.6.[ [ ;.,.;.;.;.;.;.;.;.;.;.;.,.,.;.,.;.;.[ ;.6.8.l &   ",
"  & k 9.6.` ` ` ;.;.;.;.;.;.) ` W ;.;.,.,.;.;.;.` ` ` 6.8.k &   ",
"  & l 8.6.+.<.6.,.;.;.,.,.,.6.6.6.6.,.;.;.;.;.,.6.<.;.6.8.k &   ",
"  & l 8.<.[ 8.8.,.[ ;.,.;.<.8.8.8.6.<.;.;.;.[ ,.8.6.;.<.8.l =   ",
"  & k 8.8.` m m ;.6.<.,.,.W H b b H W ,.,.<.6.;.m m ` 8.8.j &   ",
"  * h 8.9.H , < J 9.6.<.6.H 2 - ; 2 H 6.<.6.9.J < , H 9.9.h *   ",
"  = k 6.P 5     5 G ` 6.8.z %     $ z 8.6.` G 5     5 P 6.k =   ",
"  ; m W 4 +     + 1 m 8.9.l &     = z 8.9.m 1 +     + 3 ` m ;   ",
"  : H J %     .   o j 9.9.z > . . : z 8.9.j o     .   % J H :   "
};
