/* XPM */
static char *_39dbb6e38184e7bb37fbc932b5e5614AWhCi1FCijfdhJIv[] = {
/* columns rows colors chars-per-pixel */
"32 32 217 2 ",
"   c #38271F",
".  c #3A2D1D",
"X  c #2D3D16",
"o  c #37351B",
"O  c #3A1F24",
"+  c #3B2426",
"@  c #352B24",
"#  c #3B2C24",
"$  c #3C2629",
"%  c #332B2C",
"&  c #3E292B",
"*  c #372525",
"=  c #343524",
"-  c #3B3326",
";  c #3B3A26",
":  c #353129",
">  c #3C332B",
",  c #3B3B2B",
"<  c #343E25",
"1  c #3C2C32",
"2  c #362630",
"3  c #3E3231",
"4  c #3B3139",
"5  c #403D1E",
"6  c #431F2D",
"7  c #541F3B",
"8  c #452527",
"9  c #422D27",
"0  c #42262C",
"q  c #412B2E",
"w  c #492C2D",
"e  c #43332D",
"r  c #4B332D",
"t  c #423B2D",
"y  c #4A3A2C",
"u  c #473C26",
"i  c #462434",
"p  c #482434",
"a  c #442D31",
"s  c #4A2D33",
"d  c #4E2D3A",
"f  c #442C39",
"g  c #522C33",
"h  c #552B3C",
"j  c #5A2D3E",
"k  c #522337",
"l  c #453133",
"z  c #4B3335",
"x  c #463A33",
"c  c #4C3B34",
"v  c #45353A",
"b  c #4C3539",
"n  c #4E3B3B",
"m  c #533433",
"M  c #593534",
"N  c #533B35",
"B  c #54353B",
"V  c #5A343D",
"C  c #533B3C",
"Z  c #5B3C3C",
"A  c #633D36",
"S  c #623B3D",
"D  c #2C5709",
"F  c #2B4A18",
"G  c #39441C",
"H  c #3C4C1D",
"J  c #374618",
"K  c #2B5D13",
"L  c #2E5118",
"P  c #3A561C",
"I  c #335516",
"U  c #256603",
"Y  c #2A6606",
"T  c #306702",
"R  c #37670A",
"E  c #2C7408",
"W  c #357202",
"Q  c #3D720E",
"!  c #387A09",
"~  c #276211",
"^  c #346011",
"/  c #386915",
"(  c #337415",
")  c #3D7513",
"_  c #3F7618",
"`  c #3E7B13",
"'  c #354223",
"]  c #3A4324",
"[  c #3C4A23",
"{  c #3D432C",
"}  c #3C4B2B",
"|  c #305424",
" . c #3B6920",
".. c #3F7521",
"X. c #40571F",
"o. c #447C0C",
"O. c #46770E",
"+. c #47661A",
"@. c #477818",
"#. c #444324",
"$. c #414A23",
"%. c #4C4B24",
"&. c #43412C",
"*. c #464D2D",
"=. c #4C472D",
"-. c #51452D",
";. c #43542A",
":. c #415929",
">. c #58582D",
",. c #4B4432",
"<. c #4C4D32",
"1. c #474439",
"2. c #4C4139",
"3. c #4A4B35",
"4. c #534234",
"5. c #544A34",
"6. c #53413A",
"7. c #5B443C",
"8. c #554B3B",
"9. c #5B4B37",
"0. c #4D5130",
"q. c #575735",
"w. c #63423F",
"e. c #654C3B",
"r. c #6A5C37",
"t. c #625D3D",
"y. c #4D6528",
"u. c #4A7C24",
"i. c #487D25",
"p. c #507528",
"a. c #596331",
"s. c #636D28",
"d. c #6D703B",
"f. c #727236",
"g. c #646738",
"h. c #4C3943",
"j. c #543543",
"k. c #5B3542",
"l. c #563C43",
"z. c #5C3C43",
"x. c #5B3A4A",
"c. c #5C3748",
"v. c #633C45",
"b. c #633A4B",
"n. c #693C4D",
"m. c #663B43",
"M. c #6E3757",
"N. c #633458",
"B. c #564243",
"V. c #5D4344",
"C. c #5C4C43",
"Z. c #5D434A",
"A. c #5D5040",
"S. c #644343",
"D. c #6B4344",
"F. c #6A4B45",
"G. c #654248",
"H. c #6B434B",
"J. c #634C4B",
"K. c #6B4A4C",
"L. c #634A46",
"P. c #704647",
"I. c #774548",
"U. c #665646",
"Y. c #6B4353",
"T. c #674850",
"R. c #654550",
"E. c #744A55",
"W. c #75465D",
"Q. c #7C4D59",
"!. c #784D58",
"~. c #685F56",
"^. c #7F545D",
"/. c #745657",
"(. c #586940",
"). c #874B64",
"_. c #3C9600",
"`. c #358012",
"'. c #3C8218",
"]. c #389113",
"[. c #3E8421",
"{. c #43850D",
"}. c #438507",
"|. c #49900B",
" X c #448413",
".X c #478218",
"XX c #4E8B1B",
"oX c #4B821C",
"OX c #4B9315",
"+X c #4A901C",
"@X c #589917",
"#X c #52941B",
"$X c #56A015",
"%X c #61A51E",
"&X c #4C8224",
"*X c #498526",
"=X c #518D2C",
"-X c #568C27",
";X c #4E9225",
":X c #559124",
">X c #55942A",
",X c #589A28",
"<X c #4F8731",
"1X c #538D39",
"2X c #5B9934",
"3X c #599133",
"4X c #6C9F38",
"5X c #609D35",
"6X c #5FA520",
"7X c #68A637",
"8X c #69AD38",
"9X c #6CB532",
"0X c #5CA345",
"qX c #6CA943",
"wX c #76BE41",
"eX c #79A955",
"rX c #82A15B",
/* pixels */
"u.#X,X+X1XXX=X0X'.2X5X>X&X=X2X7XrX{.OX=X&X>X.XeX*X>X#X*X<X=X<X@.",
"*X@.@.7X,X|.OXwX@X6X6X X:X>X8X9XqX5X8X;X;XXX>XqX#X-X|.|.#X$X_.` ",
"` ( K ) @. X*X@._ K  .D W ! ;X( ].O.3XU E {.!  X'.{.Y ) O.4XXX_ ",
"o.R ~ O.oXQ &XW p.:.;.:.D ) oXR ! ^ y.D R .XT ) L / D I ~ 1X_ E ",
"@._ ~ u.[ ' } L t.d.s.s.a.a.:.P H >.#.9.q.^ K [ m ;.%.A.| y.9.+.",
"O. XU +.t n.b.c D.9.*.1.x.b.c ' t 5.4.c.J.H J : S 0.N N.*.r.).U.",
"J.q.3.4.c.g s e k.f 4 v M w.N % f q C i l.6.# * M n N M 3.g.f.(.",
"W.P.v.v.W.A z a e e 8 0 0 l q 0 2 q z @ s h w e 1 l v.I.M.Y.r.~.",
"V.w.c C.w.m & $ $ $ + & & $ * & & & $ $ $ & & & $ a M 4.0.,.m.Z ",
"!.Q.Z V.Z 7.&., $ l v s q a a & $ $ & 1 & & & & q b m.Z 3.Z Q.E.",
"/.^.V V.v.K.c @ $ B V l q a a q * l z & q b l $ & C H.z.B.V ).J.",
"0.U.c B j v.v O a l n b s a q & $ b n q q n b $ * z z.B n m F.=.",
"G 5.4.C h 0 l 9 s z B n n b l & $ q q q 1 q q $ & q 9 z x 4.9.I ",
"C.K.G.z.B # = o q l l q s j.V s $ $ $ $ & & q & l >   c n 7.5.L ",
"/.!.v.V.z.> = . $ q & * $ l B l & & q $ $ l a & w # # n Z.v.9.F ",
"z.D.v.z.B $ $ i & a a l & $ $ & $ $ $ & $ & $ & 0 @ # n x.n.H., ",
"[ ;.C.c.l.l 1 0 1 $ O a $ + q + & q q q q $ $ $ # & d j.Z e.} 0.",
"0.e.w.7.V.B 8 # $ $ $ z a + & q a v C a $ q a & $ & Z G.V.G.5.$.",
"6.D.n.S.V.6.w c 0 & 1 n z $ $ q * a l & $ a l a B a Z D.V.Z.F.&.",
"B G.G.H.B x 1 d q $ a z a $ $ & $ $ $ $ a a q $ l w 3 B C 4.v.v ",
"z n B.V.e > 1 p l & $ q & a a & a $ $ a l v a & 9 8 : t 9.,.S j.",
"<.N N ,.t c b q C a a $ & a q $ $ a q q a b s $ & r &.<.Z C C./.",
"8.F.D.N c c r # C a l a $ a & $ $ q a $ $ & $ * a q c c z G.J.F.",
"m T.Y.h V 1 $ p & * a a & & $ a q $ $ $ 9 0 & a 8 % d n e D.S.s ",
"{ 7.u o -.r % 1 f & a 6 w q $ > # p 0 # - p > > # 9 l l.s V V.B ",
"U.w.z { t 1 z g $ # l + > > 0 - & f x a e 7 d h { @ # n m Z K.!.",
"9.v.l.z + i h.m e ; c & - e a > i z c p ; s , l t e e 9 q c C.G.",
"& v.b.V z d f # # = x w - r d # k t u & G G F J + w w a 6.2.C & ",
"E.H.z , < c B M > , z B r B j.v a ' #.q G 0.H o c C d z V z H.!.",
"J.Z N ,.] c V.z , { r V M B j.l z ] ,.d #.Z B C d v.c.G.B.r v.n.",
"] t M M e z 7.] c 8.x z ,.C k.b V r Z k.] z.j.,.v.v.g B n y 2.r ",
"J &.B V B.s r $.c 5.= : o c V m b.v k.h P 4.x H 6.C 9 2.y - 6.L."
};
